M48
;DRILL file {KiCad 4.0.4-stable} date 06/27/17 23:49:57
;FORMAT={-:-/ absolute / inch / decimal}
FMAT,2
INCH,TZ
T1C0.016
T2C0.020
%
G90
G05
M72
T1
X4.0492Y-3.6398
X4.1201Y-3.435
X4.1319Y-3.5354
X4.2008Y-3.6535
X4.3189Y-3.4567
X4.4094Y-3.4528
X4.4193Y-3.8465
X4.4587Y-3.2087
X4.5591Y-3.4291
X4.5787Y-3.6732
X4.6161Y-3.1476
X4.6457Y-2.8445
X4.7598Y-3.1358
X4.7677Y-3.0118
X4.7815Y-3.4823
X4.8524Y-2.7224
X4.8524Y-2.8642
X4.8819Y-3.0886
X4.9134Y-2.5827
X4.9154Y-3.3445
X4.937Y-2.063
X4.9567Y-1.9685
X4.9764Y-2.0157
X4.9941Y-2.1988
X5.0157Y-2.1555
X5.0433Y-1.9094
X5.128Y-1.9823
X5.1732Y-2.3573
X5.1811Y-2.065
X5.189Y-2.4409
X5.2008Y-1.5335
X5.2756Y-1.5965
X5.2815Y-2.3327
X5.2933Y-2.3819
X5.3031Y-2.2343
X5.3484Y-2.2008
X5.3543Y-1.811
X5.3543Y-1.811
X5.3819Y-2.185
X5.4744Y-2.1654
X5.4941Y-2.4587
X5.5098Y-1.5787
X5.5148Y-1.4232
X5.5276Y-2.3425
X5.5787Y-1.9783
X5.5984Y-2.2618
X5.6132Y-1.5413
X5.624Y-2.3819
X5.6437Y-1.813
X5.6476Y-2.2539
X5.6713Y-3.4173
X5.6988Y-1.6565
X5.6998Y-1.998
X5.7067Y-1.935
X5.7441Y-2.0531
X5.7657Y-2.5728
X5.7776Y-2.6358
X5.7933Y-2.5886
X5.8091Y-2.6831
X5.8366Y-3.3071
X5.9173Y-2.9646
X5.9567Y-3.2461
X6.Y-3.185
X6.0256Y-2.9232
X6.0256Y-3.4882
X6.0335Y-3.0413
X6.063Y-3.3504
X6.1142Y-2.9252
X6.2224Y-3.6811
X6.3819Y-3.689
X6.4134Y-3.1476
T2
X4.2938Y-3.8268
X4.3406Y-3.837
X4.3839Y-3.8422
X4.4744Y-3.0709
T2
X5.2372Y-2.2874G85X5.251Y-2.2874
G05
X5.3396Y-2.372G85X5.3691Y-2.372
G05
X5.4577Y-2.2874G85X5.4715Y-2.2874
G05
T0
M30
