G04 #@! TF.FileFunction,Profile,NP*
%FSLAX46Y46*%
G04 Gerber Fmt 4.6, Leading zero omitted, Abs format (unit mm)*
G04 Created by KiCad (PCBNEW 4.0.4-stable) date 06/24/17 11:55:31*
%MOMM*%
%LPD*%
G01*
G04 APERTURE LIST*
%ADD10C,0.100000*%
G04 APERTURE END LIST*
D10*
X101693054Y-99987723D02*
G75*
G03X101693054Y-99987723I-1666666J0D01*
G01*
X97526388Y-99987723D02*
X102526388Y-99987723D01*
X100026388Y-97487723D02*
X100026388Y-102487723D01*
X135484720Y-88777418D02*
G75*
G02X136484720Y-88777418I500000J-866025D01*
G01*
X119094438Y-98240352D02*
X135484720Y-88777415D01*
X136484720Y-88777415D02*
X152875009Y-98240352D01*
X123259722Y-65871043D02*
G75*
G02X122759722Y-66737068I-1000000J0D01*
G01*
X123259722Y-46945178D02*
X123259722Y-65871043D01*
X122759722Y-66737071D02*
X106369440Y-76200000D01*
X149209726Y-66737068D02*
G75*
G02X148709726Y-65871043I500000J866025D01*
G01*
X148709718Y-65871043D02*
X148709718Y-46945178D01*
X165599997Y-76200003D02*
G75*
G02X152874996Y-98240349I-6362500J-11020173D01*
G01*
X119094435Y-98240349D02*
G75*
G02X106369434Y-76200003I-6362500J11020173D01*
G01*
X123259720Y-46945179D02*
G75*
G02X148709720Y-46945178I12725000J1D01*
G01*
X147034720Y-73795177D02*
G75*
G03X147034720Y-73795177I-11050000J0D01*
G01*
X146832948Y-61700358D02*
G75*
G03X146832948Y-61700358I-1250000J0D01*
G01*
X127636492Y-61700358D02*
G75*
G03X127636492Y-61700358I-1250000J0D01*
G01*
X131559412Y-88154895D02*
G75*
G03X131559412Y-88154895I-1250000J0D01*
G01*
X121961183Y-71530276D02*
G75*
G03X121961183Y-71530276I-1250000J0D01*
G01*
X152508249Y-71530276D02*
G75*
G03X152508249Y-71530276I-1250000J0D01*
G01*
X142910028Y-88154895D02*
G75*
G03X142910028Y-88154895I-1250000J0D01*
G01*
X165600000Y-76200000D02*
X149209718Y-66737071D01*
M02*
