G04 #@! TF.FileFunction,Legend,Top*
%FSLAX46Y46*%
G04 Gerber Fmt 4.6, Leading zero omitted, Abs format (unit mm)*
G04 Created by KiCad (PCBNEW 4.0.4-stable) date 05/24/17 12:53:21*
%MOMM*%
%LPD*%
G01*
G04 APERTURE LIST*
%ADD10C,0.100000*%
%ADD11C,0.150000*%
%ADD12C,0.127000*%
%ADD13C,0.203200*%
%ADD14C,0.125000*%
%ADD15C,0.119380*%
%ADD16C,0.114300*%
%ADD17C,0.031750*%
G04 APERTURE END LIST*
D10*
D11*
X127426992Y-50369454D02*
X127780546Y-50723008D01*
X128523008Y-49980546D02*
X128169454Y-49626992D01*
X131476992Y-41069454D02*
X131830546Y-41423008D01*
X132573008Y-40680546D02*
X132219454Y-40326992D01*
X130848008Y-52530546D02*
X130494454Y-52176992D01*
X129751992Y-52919454D02*
X130105546Y-53273008D01*
X127701992Y-44769454D02*
X128055546Y-45123008D01*
X128798008Y-44380546D02*
X128444454Y-44026992D01*
X141798008Y-42480546D02*
X141444454Y-42126992D01*
X140701992Y-42869454D02*
X141055546Y-43223008D01*
X130000000Y-59300000D02*
X129500000Y-59300000D01*
X129500000Y-60350000D02*
X130000000Y-60350000D01*
X108840469Y-81721580D02*
X108407457Y-81971580D01*
X108932457Y-82880906D02*
X109365469Y-82630906D01*
X114213081Y-93943243D02*
X113780069Y-94193243D01*
X114305069Y-95102569D02*
X114738081Y-94852569D01*
X108806336Y-92128484D02*
X109239348Y-91878484D01*
X108714348Y-90969158D02*
X108281336Y-91219158D01*
X111995373Y-86886033D02*
X112428385Y-86636033D01*
X111903385Y-85726707D02*
X111470373Y-85976707D01*
X143169454Y-51548008D02*
X143523008Y-51194454D01*
X142780546Y-50451992D02*
X142426992Y-50805546D01*
X139226992Y-41394454D02*
X139580546Y-41748008D01*
X140323008Y-41005546D02*
X139969454Y-40651992D01*
D12*
X154940223Y-85097574D02*
X155806907Y-85597954D01*
X156106627Y-85078824D02*
X155239943Y-84578444D01*
X155437637Y-85038669D02*
X155609213Y-85137729D01*
X155746732Y-85102741D02*
X155399178Y-84902081D01*
X155399178Y-84902081D02*
X155473895Y-85173987D01*
X155473895Y-85173987D02*
X155746732Y-85102741D01*
X156356817Y-84645482D02*
X155556717Y-86031296D01*
X155556717Y-86031296D02*
X154690033Y-85530916D01*
X154690033Y-85530916D02*
X155490133Y-84145102D01*
X155490133Y-84145102D02*
X156356817Y-84645482D01*
X156672274Y-86097575D02*
X157538958Y-86597955D01*
X157838678Y-86078825D02*
X156971994Y-85578445D01*
X157169688Y-86038670D02*
X157341264Y-86137730D01*
X157478783Y-86102742D02*
X157131229Y-85902082D01*
X157131229Y-85902082D02*
X157205946Y-86173988D01*
X157205946Y-86173988D02*
X157478783Y-86102742D01*
X158088868Y-85645483D02*
X157288768Y-87031297D01*
X157288768Y-87031297D02*
X156422084Y-86530917D01*
X156422084Y-86530917D02*
X157222184Y-85145103D01*
X157222184Y-85145103D02*
X158088868Y-85645483D01*
X158404325Y-87097575D02*
X159271009Y-87597955D01*
X159570729Y-87078825D02*
X158704045Y-86578445D01*
X158901739Y-87038670D02*
X159073315Y-87137730D01*
X159210834Y-87102742D02*
X158863280Y-86902082D01*
X158863280Y-86902082D02*
X158937997Y-87173988D01*
X158937997Y-87173988D02*
X159210834Y-87102742D01*
X159820919Y-86645483D02*
X159020819Y-88031297D01*
X159020819Y-88031297D02*
X158154135Y-87530917D01*
X158154135Y-87530917D02*
X158954235Y-86145103D01*
X158954235Y-86145103D02*
X159820919Y-86645483D01*
X160136375Y-88097574D02*
X161003059Y-88597954D01*
X161302779Y-88078824D02*
X160436095Y-87578444D01*
X160633789Y-88038669D02*
X160805365Y-88137729D01*
X160942884Y-88102741D02*
X160595330Y-87902081D01*
X160595330Y-87902081D02*
X160670047Y-88173987D01*
X160670047Y-88173987D02*
X160942884Y-88102741D01*
X161552969Y-87645482D02*
X160752869Y-89031296D01*
X160752869Y-89031296D02*
X159886185Y-88530916D01*
X159886185Y-88530916D02*
X160686285Y-87145102D01*
X160686285Y-87145102D02*
X161552969Y-87645482D01*
X161868426Y-89097574D02*
X162735110Y-89597954D01*
X163034830Y-89078824D02*
X162168146Y-88578444D01*
X162365840Y-89038669D02*
X162537416Y-89137729D01*
X162674935Y-89102741D02*
X162327381Y-88902081D01*
X162327381Y-88902081D02*
X162402098Y-89173987D01*
X162402098Y-89173987D02*
X162674935Y-89102741D01*
X163285020Y-88645482D02*
X162484920Y-90031296D01*
X162484920Y-90031296D02*
X161618236Y-89530916D01*
X161618236Y-89530916D02*
X162418336Y-88145102D01*
X162418336Y-88145102D02*
X163285020Y-88645482D01*
X163600477Y-90097574D02*
X164467161Y-90597954D01*
X164766881Y-90078824D02*
X163900197Y-89578444D01*
X164097891Y-90038669D02*
X164269467Y-90137729D01*
X164406986Y-90102741D02*
X164059432Y-89902081D01*
X164059432Y-89902081D02*
X164134149Y-90173987D01*
X164134149Y-90173987D02*
X164406986Y-90102741D01*
X165017071Y-89645482D02*
X164216971Y-91031296D01*
X164216971Y-91031296D02*
X163350287Y-90530916D01*
X163350287Y-90530916D02*
X164150387Y-89145102D01*
X164150387Y-89145102D02*
X165017071Y-89645482D01*
X165332528Y-91097575D02*
X166199212Y-91597955D01*
X166498932Y-91078825D02*
X165632248Y-90578445D01*
X165829942Y-91038670D02*
X166001518Y-91137730D01*
X166139037Y-91102742D02*
X165791483Y-90902082D01*
X165791483Y-90902082D02*
X165866200Y-91173988D01*
X165866200Y-91173988D02*
X166139037Y-91102742D01*
X166749122Y-90645483D02*
X165949022Y-92031297D01*
X165949022Y-92031297D02*
X165082338Y-91530917D01*
X165082338Y-91530917D02*
X165882438Y-90145103D01*
X165882438Y-90145103D02*
X166749122Y-90645483D01*
X167064579Y-92097575D02*
X167931263Y-92597955D01*
X168230983Y-92078825D02*
X167364299Y-91578445D01*
X167561993Y-92038670D02*
X167733569Y-92137730D01*
X167871088Y-92102742D02*
X167523534Y-91902082D01*
X167523534Y-91902082D02*
X167598251Y-92173988D01*
X167598251Y-92173988D02*
X167871088Y-92102742D01*
X168481173Y-91645483D02*
X167681073Y-93031297D01*
X167681073Y-93031297D02*
X166814389Y-92530917D01*
X166814389Y-92530917D02*
X167614489Y-91145103D01*
X167614489Y-91145103D02*
X168481173Y-91645483D01*
X130993000Y-58962800D02*
X130993000Y-57337200D01*
X128707000Y-57337200D02*
X128707000Y-58962800D01*
X128249800Y-57337200D02*
X128249800Y-58962800D01*
X128249800Y-58962800D02*
X131450200Y-58962800D01*
X131450200Y-58962800D02*
X131450200Y-57337200D01*
X131450200Y-57337200D02*
X128249800Y-57337200D01*
X126217764Y-47559210D02*
X127834210Y-45942764D01*
X127834210Y-45942764D02*
X128732236Y-46840790D01*
X128732236Y-46840790D02*
X127115790Y-48457236D01*
X127115790Y-48457236D02*
X126217764Y-47559210D01*
X115419989Y-91430668D02*
X114848066Y-91760868D01*
X114467489Y-89780890D02*
X113895566Y-90111090D01*
X116153577Y-89907279D02*
X116725500Y-89577079D01*
X115404277Y-88609453D02*
X116902877Y-91205105D01*
X116902877Y-91205105D02*
X115693039Y-91903605D01*
X115693039Y-91903605D02*
X114194439Y-89307953D01*
X114194439Y-89307953D02*
X115404277Y-88609453D01*
D11*
X117654006Y-90520337D02*
X117220994Y-90770337D01*
X117745994Y-91679663D02*
X118179006Y-91429663D01*
X119404006Y-89520337D02*
X118970994Y-89770337D01*
X119495994Y-90679663D02*
X119929006Y-90429663D01*
X142276992Y-44419454D02*
X142630546Y-44773008D01*
X143373008Y-44030546D02*
X143019454Y-43676992D01*
X113099685Y-91814782D02*
X113349685Y-92247794D01*
X114259011Y-91722794D02*
X114009011Y-91289782D01*
X105948434Y-83362429D02*
X105515422Y-83612429D01*
X106040422Y-84521755D02*
X106473434Y-84271755D01*
X157353088Y-82969129D02*
X157603088Y-82536117D01*
X156693762Y-82011117D02*
X156443762Y-82444129D01*
X159085139Y-83969129D02*
X159335139Y-83536117D01*
X158425813Y-83011117D02*
X158175813Y-83444129D01*
X160817189Y-84969130D02*
X161067189Y-84536118D01*
X160157863Y-84011118D02*
X159907863Y-84444130D01*
X162549240Y-85969129D02*
X162799240Y-85536117D01*
X161889914Y-85011117D02*
X161639914Y-85444129D01*
X164281291Y-86969129D02*
X164531291Y-86536117D01*
X163621965Y-86011117D02*
X163371965Y-86444129D01*
X166013342Y-87969129D02*
X166263342Y-87536117D01*
X165354016Y-87011117D02*
X165104016Y-87444129D01*
X167745393Y-88969129D02*
X167995393Y-88536117D01*
X167086067Y-88011117D02*
X166836067Y-88444129D01*
X169477443Y-89969130D02*
X169727443Y-89536118D01*
X168818117Y-89011118D02*
X168568117Y-89444130D01*
D12*
X116044631Y-84812349D02*
X116281706Y-83927574D01*
X115968431Y-84680367D02*
X116149724Y-84003774D01*
X118156169Y-85675639D02*
X118728092Y-85345439D01*
X117203669Y-84025861D02*
X117775592Y-83695661D01*
X116470081Y-85549250D02*
X115898158Y-85879450D01*
X116946331Y-86374139D02*
X116374408Y-86704339D01*
X115993831Y-84724361D02*
X115421908Y-85054561D01*
X116930619Y-83552924D02*
X118429219Y-86148576D01*
X118429219Y-86148576D02*
X117219381Y-86847076D01*
X117219381Y-86847076D02*
X115720781Y-84251424D01*
X115720781Y-84251424D02*
X116930619Y-83552924D01*
D11*
X136000000Y-42273476D02*
X135628769Y-42644707D01*
X141126524Y-47400000D02*
X140755293Y-47771231D01*
X136000000Y-52526524D02*
X136371231Y-52155293D01*
X130873476Y-47400000D02*
X131244707Y-47028769D01*
X136000000Y-42273476D02*
X136371231Y-42644707D01*
X130873476Y-47400000D02*
X131244707Y-47771231D01*
X136000000Y-52526524D02*
X135628769Y-52155293D01*
X141126524Y-47400000D02*
X140755293Y-47028769D01*
X135628769Y-42644707D02*
X134656497Y-41672435D01*
X110276507Y-94141689D02*
G75*
G03X110276507Y-94141689I-100000J0D01*
G01*
X110118013Y-93540375D02*
X110368013Y-93973387D01*
X112629487Y-92090375D02*
X110118013Y-93540375D01*
X112879487Y-92523387D02*
X112629487Y-92090375D01*
X110368013Y-93973387D02*
X112879487Y-92523387D01*
D12*
X153924167Y-79108846D02*
X155724167Y-75991154D01*
X157975833Y-77291154D02*
X156175833Y-80408846D01*
X156350638Y-80682051D02*
G75*
G03X156350638Y-80682051I-101600J0D01*
G01*
X155724167Y-75991154D02*
X157975833Y-77291154D01*
X156175833Y-80408846D02*
X153924167Y-79108846D01*
D11*
X128180456Y-43255330D02*
X130690685Y-40745101D01*
X129523959Y-44740254D02*
X132140254Y-42123959D01*
X111591302Y-83886162D02*
X111716302Y-84102669D01*
X111341302Y-83453150D02*
X111216302Y-83236643D01*
X111341302Y-83453150D02*
X111894411Y-83711162D01*
X111894411Y-83711162D02*
X111288193Y-84061162D01*
X111288193Y-84061162D02*
X111341302Y-83453150D01*
X111644411Y-83278150D02*
X111038193Y-83628150D01*
X110123482Y-82943823D02*
X111323482Y-85022284D01*
X111509122Y-82143823D02*
X112709122Y-84222284D01*
X107098915Y-86855121D02*
X106665903Y-87105121D01*
X107190903Y-88014447D02*
X107623915Y-87764447D01*
X107894253Y-89282683D02*
X108327265Y-89032683D01*
X107802265Y-88123357D02*
X107369253Y-88373357D01*
X125579006Y-86045337D02*
X125145994Y-86295337D01*
X125670994Y-87204663D02*
X126104006Y-86954663D01*
X151270994Y-76304663D02*
X151704006Y-76554663D01*
X152229006Y-75645337D02*
X151795994Y-75395337D01*
X121068616Y-81045866D02*
X121318616Y-81478878D01*
X122227942Y-80953878D02*
X121977942Y-80520866D01*
X149404663Y-82954006D02*
X149654663Y-82520994D01*
X148745337Y-81995994D02*
X148495337Y-82429006D01*
X122168616Y-82951122D02*
X122418616Y-83384134D01*
X123327942Y-82859134D02*
X123077942Y-82426122D01*
X150479663Y-81054006D02*
X150729663Y-80620994D01*
X149820337Y-80095994D02*
X149570337Y-80529006D01*
D12*
X108384822Y-86284175D02*
X107500047Y-86047100D01*
X108252840Y-86360375D02*
X107576247Y-86179082D01*
X109248112Y-84172637D02*
X108917912Y-83600714D01*
X107598334Y-85125137D02*
X107268134Y-84553214D01*
X109121723Y-85858725D02*
X109451923Y-86430648D01*
X109946612Y-85382475D02*
X110276812Y-85954398D01*
X108296834Y-86334975D02*
X108627034Y-86906898D01*
X107125397Y-85398187D02*
X109721049Y-83899587D01*
X109721049Y-83899587D02*
X110419549Y-85109425D01*
X110419549Y-85109425D02*
X107823897Y-86608025D01*
X107823897Y-86608025D02*
X107125397Y-85398187D01*
X124871331Y-81524139D02*
X124299408Y-81854339D01*
X123918831Y-79874361D02*
X123346908Y-80204561D01*
X125604919Y-80000750D02*
X126176842Y-79670550D01*
X124855619Y-78702924D02*
X126354219Y-81298576D01*
X126354219Y-81298576D02*
X125144381Y-81997076D01*
X125144381Y-81997076D02*
X123645781Y-79401424D01*
X123645781Y-79401424D02*
X124855619Y-78702924D01*
X148331169Y-79624361D02*
X148903092Y-79954561D01*
X147378669Y-81274139D02*
X147950592Y-81604339D01*
X146645081Y-79750750D02*
X146073158Y-79420550D01*
X145895781Y-81048576D02*
X147394381Y-78452924D01*
X147394381Y-78452924D02*
X148604219Y-79151424D01*
X148604219Y-79151424D02*
X147105619Y-81747076D01*
X147105619Y-81747076D02*
X145895781Y-81048576D01*
D11*
X150879663Y-84429006D02*
X151129663Y-83995994D01*
X150220337Y-83470994D02*
X149970337Y-83904006D01*
X135250000Y-34475000D02*
X135250000Y-33875000D01*
X135250000Y-33875000D02*
X136650000Y-33875000D01*
X136650000Y-33875000D02*
X136650000Y-34475000D01*
X136650000Y-34575000D02*
X135250000Y-34575000D01*
X132650000Y-39975000D02*
X139300000Y-39975000D01*
X132650000Y-39975000D02*
X132650000Y-34575000D01*
X132700000Y-34575000D02*
X139250000Y-34575000D01*
X139350000Y-39975000D02*
X139350000Y-34575000D01*
D13*
X145104000Y-41116000D02*
X145104000Y-39084000D01*
X144596000Y-39084000D02*
X144596000Y-41116000D01*
X145104000Y-41116000D02*
G75*
G03X146120000Y-40100000I0J1016000D01*
G01*
X146120000Y-40100000D02*
G75*
G03X145104000Y-39084000I-1016000J0D01*
G01*
X144596000Y-39084000D02*
G75*
G03X143580000Y-40100000I0J-1016000D01*
G01*
X143580000Y-40100000D02*
G75*
G03X144596000Y-41116000I1016000J0D01*
G01*
D11*
X126927766Y-51155812D02*
X126887361Y-51155812D01*
X126806548Y-51115407D01*
X126766142Y-51075001D01*
X126725736Y-50994188D01*
X126725737Y-50913376D01*
X126745939Y-50852766D01*
X126806548Y-50751752D01*
X126867158Y-50691142D01*
X126968172Y-50630533D01*
X127028782Y-50610330D01*
X127109594Y-50610330D01*
X127190406Y-50650737D01*
X127230812Y-50691143D01*
X127271219Y-50771955D01*
X127271219Y-50812360D01*
X127291421Y-51600280D02*
X127048985Y-51357843D01*
X127170203Y-51479061D02*
X127594467Y-51054797D01*
X127493452Y-51075000D01*
X127412640Y-51075001D01*
X127352031Y-51054797D01*
D14*
X131092343Y-40260194D02*
X131092343Y-40293867D01*
X131058672Y-40361209D01*
X131025000Y-40394881D01*
X130957657Y-40428553D01*
X130890313Y-40428553D01*
X130839806Y-40411717D01*
X130755626Y-40361210D01*
X130705118Y-40310702D01*
X130654611Y-40226522D01*
X130637775Y-40176015D01*
X130637775Y-40108672D01*
X130671447Y-40041328D01*
X130705118Y-40007656D01*
X130772462Y-39973985D01*
X130806134Y-39973985D01*
X130940821Y-39839298D02*
X130940821Y-39805626D01*
X130957657Y-39755118D01*
X131041836Y-39670939D01*
X131092343Y-39654103D01*
X131126016Y-39654103D01*
X131176523Y-39670939D01*
X131210195Y-39704611D01*
X131243867Y-39771954D01*
X131243867Y-40176014D01*
X131462732Y-39957149D01*
D11*
X131252030Y-54105075D02*
X131211625Y-54105075D01*
X131130812Y-54064670D01*
X131090406Y-54024264D01*
X131050000Y-53943451D01*
X131050001Y-53862639D01*
X131070203Y-53802029D01*
X131130812Y-53701015D01*
X131191422Y-53640405D01*
X131292436Y-53579796D01*
X131353046Y-53559593D01*
X131433858Y-53559593D01*
X131514670Y-53600000D01*
X131555076Y-53640406D01*
X131595483Y-53721218D01*
X131595483Y-53761623D01*
X131777309Y-53862639D02*
X132039949Y-54125279D01*
X131736904Y-54145482D01*
X131797513Y-54206091D01*
X131817716Y-54266700D01*
X131817716Y-54307106D01*
X131797513Y-54367715D01*
X131696498Y-54468731D01*
X131635888Y-54488933D01*
X131595483Y-54488933D01*
X131534873Y-54468731D01*
X131413655Y-54347513D01*
X131393452Y-54286903D01*
X131393452Y-54246497D01*
D14*
X127142343Y-43808527D02*
X127142343Y-43842200D01*
X127108672Y-43909542D01*
X127075000Y-43943214D01*
X127007657Y-43976886D01*
X126940313Y-43976886D01*
X126889806Y-43960050D01*
X126805626Y-43909543D01*
X126755118Y-43859035D01*
X126704611Y-43774855D01*
X126687775Y-43724348D01*
X126687775Y-43657005D01*
X126721447Y-43589661D01*
X126755118Y-43555989D01*
X126822462Y-43522318D01*
X126856134Y-43522318D01*
X127243359Y-43303451D02*
X127479061Y-43539153D01*
X127024493Y-43252943D02*
X127192851Y-43589661D01*
X127411718Y-43370795D01*
D11*
X141802766Y-41955812D02*
X141762361Y-41955812D01*
X141681548Y-41915407D01*
X141641142Y-41875001D01*
X141600736Y-41794188D01*
X141600737Y-41713376D01*
X141620939Y-41652766D01*
X141681548Y-41551752D01*
X141742158Y-41491142D01*
X141843172Y-41430533D01*
X141903782Y-41410330D01*
X141984594Y-41410330D01*
X142065406Y-41450737D01*
X142105812Y-41491143D01*
X142146219Y-41571955D01*
X142146219Y-41612360D01*
X142570482Y-41955812D02*
X142368452Y-41753782D01*
X142146219Y-41935610D01*
X142186625Y-41935609D01*
X142247234Y-41955812D01*
X142348249Y-42056828D01*
X142368452Y-42117437D01*
X142368452Y-42157843D01*
X142348249Y-42218452D01*
X142247234Y-42319468D01*
X142186624Y-42339670D01*
X142146219Y-42339670D01*
X142085609Y-42319468D01*
X141984594Y-42218452D01*
X141964391Y-42157843D01*
X141964391Y-42117437D01*
X131200000Y-60089286D02*
X131171429Y-60117857D01*
X131085715Y-60146429D01*
X131028572Y-60146429D01*
X130942857Y-60117857D01*
X130885715Y-60060714D01*
X130857143Y-60003571D01*
X130828572Y-59889286D01*
X130828572Y-59803571D01*
X130857143Y-59689286D01*
X130885715Y-59632143D01*
X130942857Y-59575000D01*
X131028572Y-59546429D01*
X131085715Y-59546429D01*
X131171429Y-59575000D01*
X131200000Y-59603571D01*
X131714286Y-59546429D02*
X131600000Y-59546429D01*
X131542857Y-59575000D01*
X131514286Y-59603571D01*
X131457143Y-59689286D01*
X131428572Y-59803571D01*
X131428572Y-60032143D01*
X131457143Y-60089286D01*
X131485715Y-60117857D01*
X131542857Y-60146429D01*
X131657143Y-60146429D01*
X131714286Y-60117857D01*
X131742857Y-60089286D01*
X131771429Y-60032143D01*
X131771429Y-59889286D01*
X131742857Y-59832143D01*
X131714286Y-59803571D01*
X131657143Y-59775000D01*
X131542857Y-59775000D01*
X131485715Y-59803571D01*
X131457143Y-59832143D01*
X131428572Y-59889286D01*
X108366154Y-81550041D02*
X108355697Y-81589070D01*
X108295752Y-81656671D01*
X108246265Y-81685242D01*
X108157748Y-81703356D01*
X108079690Y-81682440D01*
X108026374Y-81647238D01*
X107944488Y-81562550D01*
X107901631Y-81488319D01*
X107869232Y-81375059D01*
X107865404Y-81311286D01*
X107886319Y-81233228D01*
X107946265Y-81165627D01*
X107995752Y-81137056D01*
X108084268Y-81118942D01*
X108123297Y-81129400D01*
X108267931Y-80979913D02*
X108614341Y-80779913D01*
X108691649Y-81428100D01*
X114870540Y-95785577D02*
X114860083Y-95824606D01*
X114800138Y-95892207D01*
X114750651Y-95920778D01*
X114662134Y-95938892D01*
X114584076Y-95917976D01*
X114530760Y-95882774D01*
X114448874Y-95798086D01*
X114406017Y-95723855D01*
X114373618Y-95610595D01*
X114369790Y-95546822D01*
X114390705Y-95468764D01*
X114450651Y-95401163D01*
X114500138Y-95372592D01*
X114588654Y-95354478D01*
X114627683Y-95364936D01*
X115024606Y-95366712D02*
X114960834Y-95370540D01*
X114921804Y-95360083D01*
X114868490Y-95324881D01*
X114854204Y-95300137D01*
X114850375Y-95236364D01*
X114860834Y-95197335D01*
X114896035Y-95144021D01*
X114995009Y-95086878D01*
X115058782Y-95083049D01*
X115097811Y-95093507D01*
X115151126Y-95128708D01*
X115165412Y-95153452D01*
X115169240Y-95217226D01*
X115158782Y-95256254D01*
X115123580Y-95309569D01*
X115024606Y-95366712D01*
X114989405Y-95420027D01*
X114978947Y-95459056D01*
X114982775Y-95522829D01*
X115039918Y-95621804D01*
X115093233Y-95657006D01*
X115132262Y-95667463D01*
X115196035Y-95663636D01*
X115295009Y-95606493D01*
X115330211Y-95553177D01*
X115340668Y-95514149D01*
X115336841Y-95450375D01*
X115279698Y-95351401D01*
X115226382Y-95316199D01*
X115187354Y-95305742D01*
X115123580Y-95309569D01*
X110370540Y-91035577D02*
X110360083Y-91074606D01*
X110300138Y-91142207D01*
X110250651Y-91170778D01*
X110162134Y-91188892D01*
X110084076Y-91167976D01*
X110030760Y-91132774D01*
X109948874Y-91048086D01*
X109906017Y-90973855D01*
X109873618Y-90860595D01*
X109869790Y-90796822D01*
X109890705Y-90718764D01*
X109950651Y-90651163D01*
X110000138Y-90622592D01*
X110088654Y-90604478D01*
X110127683Y-90614936D01*
X110646548Y-90942207D02*
X110745522Y-90885064D01*
X110780723Y-90831749D01*
X110791182Y-90792720D01*
X110797811Y-90689917D01*
X110765412Y-90576658D01*
X110651126Y-90378708D01*
X110597811Y-90343507D01*
X110558782Y-90333049D01*
X110495009Y-90336878D01*
X110396035Y-90394021D01*
X110360834Y-90447335D01*
X110350375Y-90486364D01*
X110354204Y-90550137D01*
X110425632Y-90673855D01*
X110478947Y-90709056D01*
X110517977Y-90719515D01*
X110581749Y-90715687D01*
X110680723Y-90658544D01*
X110715925Y-90605229D01*
X110726382Y-90566199D01*
X110722555Y-90502426D01*
X112329186Y-87650883D02*
X112318728Y-87689911D01*
X112258784Y-87757512D01*
X112209297Y-87786084D01*
X112120779Y-87804197D01*
X112042721Y-87783281D01*
X111989406Y-87748080D01*
X111907520Y-87663392D01*
X111864662Y-87589160D01*
X111832263Y-87475901D01*
X111828436Y-87412128D01*
X111849351Y-87334069D01*
X111909297Y-87266469D01*
X111958784Y-87237897D01*
X112047300Y-87219783D01*
X112086329Y-87230241D01*
X112852630Y-87414655D02*
X112555707Y-87586084D01*
X112704168Y-87500370D02*
X112404168Y-86980755D01*
X112397537Y-87083557D01*
X112376622Y-87161615D01*
X112341421Y-87214930D01*
X112874296Y-86709326D02*
X112923784Y-86680754D01*
X112987557Y-86676926D01*
X113026585Y-86687384D01*
X113079900Y-86722585D01*
X113161787Y-86807274D01*
X113233216Y-86930992D01*
X113265614Y-87044252D01*
X113269443Y-87108025D01*
X113258985Y-87147054D01*
X113223784Y-87200369D01*
X113174296Y-87228941D01*
X113110523Y-87232768D01*
X113071494Y-87222311D01*
X113018179Y-87187109D01*
X112936293Y-87102420D01*
X112864864Y-86978702D01*
X112832464Y-86865442D01*
X112828637Y-86801669D01*
X112839095Y-86762640D01*
X112874296Y-86709326D01*
X143653781Y-52199265D02*
X143653781Y-52239670D01*
X143613376Y-52320483D01*
X143572970Y-52360889D01*
X143492157Y-52401295D01*
X143411345Y-52401294D01*
X143350735Y-52381092D01*
X143249721Y-52320483D01*
X143189111Y-52259873D01*
X143128502Y-52158859D01*
X143108299Y-52098249D01*
X143108299Y-52017437D01*
X143148706Y-51936625D01*
X143189112Y-51896219D01*
X143269924Y-51855812D01*
X143310329Y-51855812D01*
X144098249Y-51835610D02*
X143855812Y-52078046D01*
X143977030Y-51956828D02*
X143552766Y-51532564D01*
X143572969Y-51633579D01*
X143572970Y-51714391D01*
X143552766Y-51775000D01*
X144502310Y-51431548D02*
X144259874Y-51673985D01*
X144381092Y-51552767D02*
X143956828Y-51128503D01*
X143977030Y-51229518D01*
X143977031Y-51310330D01*
X143956828Y-51370939D01*
X140200735Y-40328781D02*
X140160330Y-40328781D01*
X140079517Y-40288376D01*
X140039111Y-40247970D01*
X139998705Y-40167157D01*
X139998706Y-40086345D01*
X140018908Y-40025735D01*
X140079517Y-39924721D01*
X140140127Y-39864111D01*
X140241141Y-39803502D01*
X140301751Y-39783299D01*
X140382563Y-39783299D01*
X140463375Y-39823706D01*
X140503781Y-39864112D01*
X140544188Y-39944924D01*
X140544188Y-39985329D01*
X140564390Y-40773249D02*
X140321954Y-40530812D01*
X140443172Y-40652030D02*
X140867436Y-40227766D01*
X140766421Y-40247969D01*
X140685609Y-40247970D01*
X140625000Y-40227766D01*
X141109874Y-40551015D02*
X141150279Y-40551015D01*
X141210888Y-40571219D01*
X141311903Y-40672234D01*
X141332107Y-40732843D01*
X141332107Y-40773248D01*
X141311904Y-40833858D01*
X141271498Y-40874264D01*
X141190685Y-40914670D01*
X140705812Y-40914670D01*
X140968452Y-41177310D01*
D15*
X133083207Y-58164259D02*
X132916414Y-58164259D01*
X132916414Y-58426362D02*
X132916414Y-57925982D01*
X133154690Y-57925982D01*
X133607415Y-58426362D02*
X133321483Y-58426362D01*
X133464449Y-58426362D02*
X133464449Y-57925982D01*
X133416794Y-57997465D01*
X133369139Y-58045120D01*
X133321483Y-58068948D01*
D16*
X128531410Y-46053504D02*
X128377463Y-45899557D01*
X128736673Y-45540346D01*
X128808516Y-46330609D02*
X128623779Y-46145872D01*
X128716147Y-46238240D02*
X129075357Y-45879030D01*
X128993252Y-45899556D01*
X128928253Y-45902978D01*
X128880358Y-45889293D01*
D14*
X115913292Y-89055714D02*
X115910103Y-89002569D01*
X115927532Y-88937521D01*
X115953677Y-88839947D01*
X115950487Y-88786803D01*
X115926677Y-88745564D01*
X115835485Y-88825707D02*
X115832294Y-88772564D01*
X115849724Y-88707515D01*
X115920298Y-88639276D01*
X116064636Y-88555942D01*
X116159019Y-88528943D01*
X116224068Y-88546373D01*
X116268497Y-88575707D01*
X116316116Y-88658186D01*
X116319306Y-88711330D01*
X116301876Y-88776379D01*
X116231302Y-88844617D01*
X116086964Y-88927951D01*
X115992581Y-88954950D01*
X115927532Y-88937521D01*
X115883104Y-88908186D01*
X115835485Y-88825707D01*
X116180723Y-89423677D02*
X116037866Y-89176242D01*
X116109294Y-89299959D02*
X116542307Y-89049959D01*
X116456638Y-89044435D01*
X116391589Y-89027005D01*
X116347160Y-88997671D01*
D11*
X118299112Y-92335064D02*
X117983049Y-92187628D01*
X118002189Y-92506493D02*
X117702189Y-91986878D01*
X117900138Y-91872592D01*
X117963910Y-91868764D01*
X118002940Y-91879221D01*
X118056254Y-91914423D01*
X118099112Y-91988654D01*
X118102940Y-92052426D01*
X118092482Y-92091456D01*
X118057281Y-92144770D01*
X117859332Y-92259056D01*
X118793984Y-92049350D02*
X118497061Y-92220778D01*
X118645522Y-92135064D02*
X118345522Y-91615449D01*
X118338892Y-91718251D01*
X118317977Y-91796309D01*
X118282775Y-91849624D01*
X119673435Y-91748401D02*
X119357372Y-91600965D01*
X119376512Y-91919830D02*
X119076512Y-91400215D01*
X119274461Y-91285929D01*
X119338233Y-91282101D01*
X119377263Y-91292558D01*
X119430577Y-91327760D01*
X119473435Y-91401991D01*
X119477263Y-91465763D01*
X119466805Y-91504793D01*
X119431604Y-91558107D01*
X119233655Y-91672393D01*
X119599955Y-91163987D02*
X119610413Y-91124958D01*
X119645615Y-91071643D01*
X119769332Y-91000215D01*
X119833105Y-90996386D01*
X119872134Y-91006844D01*
X119925449Y-91042045D01*
X119954021Y-91091533D01*
X119972134Y-91180049D01*
X119846640Y-91648401D01*
X120168307Y-91462687D01*
X141626959Y-45213940D02*
X141687569Y-44870487D01*
X141384523Y-44971503D02*
X141808787Y-44547239D01*
X141970411Y-44708864D01*
X141990614Y-44769472D01*
X141990615Y-44809878D01*
X141970411Y-44870487D01*
X141909802Y-44931097D01*
X141849194Y-44951300D01*
X141808787Y-44951300D01*
X141748178Y-44931097D01*
X141586554Y-44769472D01*
X142192644Y-44931097D02*
X142455284Y-45193737D01*
X142152239Y-45213940D01*
X142212848Y-45274549D01*
X142233051Y-45335158D01*
X142233051Y-45375564D01*
X142212848Y-45436173D01*
X142111833Y-45537189D01*
X142051223Y-45557391D01*
X142010818Y-45557391D01*
X141950208Y-45537189D01*
X141828990Y-45415971D01*
X141808787Y-45355361D01*
X141808787Y-45314955D01*
X112537585Y-90234054D02*
X112685021Y-89917991D01*
X112366156Y-89937131D02*
X112885771Y-89637131D01*
X113000057Y-89835080D01*
X113003885Y-89898852D01*
X112993428Y-89937882D01*
X112958226Y-89991196D01*
X112883995Y-90034054D01*
X112820223Y-90037882D01*
X112781193Y-90027424D01*
X112727879Y-89992223D01*
X112613593Y-89794274D01*
X113141138Y-90479439D02*
X112794728Y-90679439D01*
X113267658Y-90241435D02*
X112825076Y-90332003D01*
X113010790Y-90653669D01*
X105446889Y-83243727D02*
X105130826Y-83096291D01*
X105149966Y-83415156D02*
X104849966Y-82895541D01*
X105047915Y-82781255D01*
X105111687Y-82777427D01*
X105150717Y-82787884D01*
X105204031Y-82823086D01*
X105246889Y-82897317D01*
X105250717Y-82961089D01*
X105240259Y-83000119D01*
X105205058Y-83053433D01*
X105007109Y-83167719D01*
X105617017Y-82452684D02*
X105369581Y-82595541D01*
X105487695Y-82857262D01*
X105498152Y-82818232D01*
X105533354Y-82764917D01*
X105657072Y-82693489D01*
X105720845Y-82689661D01*
X105759874Y-82700119D01*
X105813189Y-82735321D01*
X105884618Y-82859038D01*
X105888445Y-82922812D01*
X105877988Y-82961840D01*
X105842786Y-83015156D01*
X105719069Y-83086584D01*
X105655295Y-83090412D01*
X105616267Y-83079954D01*
D14*
X117587822Y-86770138D02*
X117790203Y-87120672D01*
X117834632Y-87150007D01*
X117867157Y-87158722D01*
X117920300Y-87155531D01*
X118002779Y-87107912D01*
X118032114Y-87063484D01*
X118040828Y-87030959D01*
X118037638Y-86977815D01*
X117835257Y-86627281D01*
X118518270Y-86810293D02*
X118270835Y-86953150D01*
X118394552Y-86881722D02*
X118144552Y-86448709D01*
X118139028Y-86534378D01*
X118121598Y-86599427D01*
X118092264Y-86643856D01*
D11*
X140091118Y-42231386D02*
X139518698Y-42803806D01*
X139485026Y-42904821D01*
X139485026Y-42972164D01*
X139518698Y-43073179D01*
X139653386Y-43207867D01*
X139754401Y-43241539D01*
X139821744Y-43241539D01*
X139922759Y-43207867D01*
X140495179Y-42635447D01*
X140730881Y-43005836D02*
X140798225Y-43005836D01*
X140899240Y-43039508D01*
X141067599Y-43207867D01*
X141101271Y-43308882D01*
X141101271Y-43376226D01*
X141067599Y-43477241D01*
X141000256Y-43544584D01*
X140865569Y-43611928D01*
X140057446Y-43611928D01*
X140495179Y-44049661D01*
X109408684Y-93416543D02*
X108707616Y-93821305D01*
X108648947Y-93910164D01*
X108631517Y-93975212D01*
X108637897Y-94081500D01*
X108733136Y-94246458D01*
X108821994Y-94305127D01*
X108887043Y-94322557D01*
X108993331Y-94316177D01*
X109694399Y-93911415D01*
X109884875Y-94241330D02*
X110194399Y-94777441D01*
X109697818Y-94679241D01*
X109769247Y-94802960D01*
X109775627Y-94909248D01*
X109758197Y-94974297D01*
X109699527Y-95063155D01*
X109493331Y-95182203D01*
X109387043Y-95188583D01*
X109321994Y-95171153D01*
X109233136Y-95112484D01*
X109090278Y-94865047D01*
X109083898Y-94758759D01*
X109101328Y-94693711D01*
D14*
X153037427Y-79042820D02*
X152835046Y-79393354D01*
X152831856Y-79446498D01*
X152840571Y-79479023D01*
X152869905Y-79523451D01*
X152952384Y-79571070D01*
X153005528Y-79574261D01*
X153038052Y-79565545D01*
X153082481Y-79536211D01*
X153284862Y-79185677D01*
X153593302Y-79556205D02*
X153426636Y-79844880D01*
X153585443Y-79331724D02*
X153303773Y-79581495D01*
X153571828Y-79736257D01*
X128534010Y-41470726D02*
X128702369Y-41639084D01*
X128230964Y-41403382D02*
X128534010Y-41470726D01*
X128466666Y-41167680D01*
X129123265Y-41218188D02*
X128921234Y-41420219D01*
X129022250Y-41319203D02*
X128668696Y-40965650D01*
X128685532Y-41049830D01*
X128685532Y-41117173D01*
X128668697Y-41167681D01*
D11*
X112253046Y-82675194D02*
X112772661Y-82375194D01*
X112844090Y-82498912D01*
X112862204Y-82587429D01*
X112841288Y-82665487D01*
X112806087Y-82718802D01*
X112721398Y-82800688D01*
X112647167Y-82843545D01*
X112533908Y-82875945D01*
X112470134Y-82879772D01*
X112392076Y-82858857D01*
X112324475Y-82798912D01*
X112253046Y-82675194D01*
X112710189Y-83466989D02*
X112538761Y-83170066D01*
X112624475Y-83318527D02*
X113144090Y-83018527D01*
X113041288Y-83011897D01*
X112963230Y-82990982D01*
X112909915Y-82955780D01*
D14*
X105386643Y-88682233D02*
X105123258Y-88559370D01*
X105139208Y-88825090D02*
X104889208Y-88392078D01*
X105054165Y-88296840D01*
X105107309Y-88293650D01*
X105139833Y-88302366D01*
X105184263Y-88331700D01*
X105219977Y-88393558D01*
X105223166Y-88446703D01*
X105214452Y-88479227D01*
X105185117Y-88523656D01*
X105020160Y-88618894D01*
X105799036Y-88444138D02*
X105551600Y-88586995D01*
X105675318Y-88515567D02*
X105425318Y-88082554D01*
X105419793Y-88168223D01*
X105402364Y-88233272D01*
X105373029Y-88277701D01*
X105920189Y-87796840D02*
X105837711Y-87844459D01*
X105808376Y-87888889D01*
X105799662Y-87921413D01*
X105794137Y-88007081D01*
X105821136Y-88101465D01*
X105916374Y-88266422D01*
X105960803Y-88295756D01*
X105993328Y-88304472D01*
X106046471Y-88301281D01*
X106128950Y-88253662D01*
X106158285Y-88209234D01*
X106167000Y-88176709D01*
X106163809Y-88123565D01*
X106104286Y-88020467D01*
X106059857Y-87991132D01*
X106027332Y-87982417D01*
X105974188Y-87985608D01*
X105891710Y-88033227D01*
X105862375Y-88077655D01*
X105853661Y-88110180D01*
X105856850Y-88163324D01*
X106124143Y-89959620D02*
X105860758Y-89836757D01*
X105876708Y-90102477D02*
X105626708Y-89669465D01*
X105791665Y-89574227D01*
X105844809Y-89571037D01*
X105877333Y-89579753D01*
X105921763Y-89609087D01*
X105957477Y-89670945D01*
X105960666Y-89724090D01*
X105951952Y-89756614D01*
X105922617Y-89801043D01*
X105757660Y-89896281D01*
X106536536Y-89721525D02*
X106289100Y-89864382D01*
X106412818Y-89792954D02*
X106162818Y-89359941D01*
X106157293Y-89445610D01*
X106139864Y-89510659D01*
X106110529Y-89555088D01*
X106430874Y-89205179D02*
X106719549Y-89038513D01*
X106783971Y-89578668D01*
D11*
X124851676Y-86056993D02*
X124535613Y-85909556D01*
X124554753Y-86228421D02*
X124254753Y-85708806D01*
X124452702Y-85594520D01*
X124516474Y-85590692D01*
X124555503Y-85601150D01*
X124608818Y-85636351D01*
X124651676Y-85710583D01*
X124655503Y-85774355D01*
X124645045Y-85813385D01*
X124609844Y-85866699D01*
X124411895Y-85980985D01*
X125346548Y-85771278D02*
X125049625Y-85942707D01*
X125198086Y-85856993D02*
X124898086Y-85337378D01*
X124891455Y-85440180D01*
X124870540Y-85518238D01*
X124835339Y-85571553D01*
X125472041Y-85302926D02*
X125408269Y-85306754D01*
X125369240Y-85296297D01*
X125315925Y-85261095D01*
X125301639Y-85236351D01*
X125297811Y-85172578D01*
X125308269Y-85133549D01*
X125343470Y-85080235D01*
X125442445Y-85023092D01*
X125506218Y-85019263D01*
X125545246Y-85029721D01*
X125598562Y-85064922D01*
X125612848Y-85089666D01*
X125616675Y-85153440D01*
X125606218Y-85192468D01*
X125571016Y-85245783D01*
X125472041Y-85302926D01*
X125436841Y-85356241D01*
X125426382Y-85395270D01*
X125430211Y-85459043D01*
X125487354Y-85558018D01*
X125540668Y-85593220D01*
X125579698Y-85603677D01*
X125643470Y-85599850D01*
X125742445Y-85542707D01*
X125777646Y-85489391D01*
X125788104Y-85450363D01*
X125784277Y-85386589D01*
X125727134Y-85287615D01*
X125673818Y-85252413D01*
X125634789Y-85241956D01*
X125571016Y-85245783D01*
X150646096Y-77065588D02*
X150615748Y-76718151D01*
X150349173Y-76894159D02*
X150649173Y-76374544D01*
X150847122Y-76488830D01*
X150882323Y-76542144D01*
X150892781Y-76581174D01*
X150888953Y-76644946D01*
X150846096Y-76719178D01*
X150792781Y-76754379D01*
X150753751Y-76764837D01*
X150689979Y-76761009D01*
X150492030Y-76646723D01*
X151140968Y-77351302D02*
X150844045Y-77179874D01*
X150992506Y-77265588D02*
X151292506Y-76745973D01*
X151200161Y-76791632D01*
X151122103Y-76812548D01*
X151058331Y-76808720D01*
X151388404Y-77494160D02*
X151487378Y-77551302D01*
X151551151Y-77555130D01*
X151590181Y-77544673D01*
X151682524Y-77499012D01*
X151764411Y-77414325D01*
X151878697Y-77216375D01*
X151882524Y-77152602D01*
X151872067Y-77113573D01*
X151836865Y-77060259D01*
X151737890Y-77003116D01*
X151674118Y-76999288D01*
X151635089Y-77009745D01*
X151581774Y-77044947D01*
X151510346Y-77168665D01*
X151506517Y-77232437D01*
X151516975Y-77271468D01*
X151552176Y-77324782D01*
X151651151Y-77381925D01*
X151714924Y-77385753D01*
X151753953Y-77375294D01*
X151807269Y-77340093D01*
X120199428Y-81333247D02*
X120346865Y-81017184D01*
X120028000Y-81036324D02*
X120547615Y-80736324D01*
X120661901Y-80934273D01*
X120665729Y-80998045D01*
X120655271Y-81037074D01*
X120620070Y-81090389D01*
X120545838Y-81133247D01*
X120482066Y-81137074D01*
X120443036Y-81126616D01*
X120389722Y-81091415D01*
X120275436Y-80893466D01*
X120783843Y-81259767D02*
X120822872Y-81270224D01*
X120876186Y-81305426D01*
X120947615Y-81429144D01*
X120951443Y-81492917D01*
X120940985Y-81531945D01*
X120905784Y-81585261D01*
X120856297Y-81613833D01*
X120767780Y-81631945D01*
X120299428Y-81506452D01*
X120485143Y-81828119D01*
X121190472Y-81849785D02*
X121219044Y-81899273D01*
X121222872Y-81963046D01*
X121212414Y-82002074D01*
X121177213Y-82055389D01*
X121092524Y-82137276D01*
X120968806Y-82208705D01*
X120855546Y-82241103D01*
X120791773Y-82244932D01*
X120752744Y-82234474D01*
X120699429Y-82199273D01*
X120670857Y-82149785D01*
X120667030Y-82086012D01*
X120677487Y-82046983D01*
X120712689Y-81993668D01*
X120797378Y-81911782D01*
X120921096Y-81840353D01*
X121034356Y-81807953D01*
X121098129Y-81804126D01*
X121137158Y-81814584D01*
X121190472Y-81849785D01*
X150044835Y-83538054D02*
X149697398Y-83568402D01*
X149873406Y-83834977D02*
X149353791Y-83534977D01*
X149468077Y-83337028D01*
X149521391Y-83301827D01*
X149560421Y-83291369D01*
X149624193Y-83295197D01*
X149698425Y-83338054D01*
X149733626Y-83391369D01*
X149744084Y-83430399D01*
X149740256Y-83494171D01*
X149625970Y-83692120D01*
X149688992Y-83068676D02*
X149678534Y-83029648D01*
X149682363Y-82965875D01*
X149753791Y-82842157D01*
X149807106Y-82806955D01*
X149846135Y-82796498D01*
X149909908Y-82800325D01*
X149959395Y-82828896D01*
X150019340Y-82896498D01*
X150144835Y-83364849D01*
X150330549Y-83043182D01*
X150616264Y-82548310D02*
X150444835Y-82845233D01*
X150530549Y-82696772D02*
X150010934Y-82396772D01*
X150056593Y-82489117D01*
X150077509Y-82567175D01*
X150073681Y-82630947D01*
X121324428Y-83281804D02*
X121471865Y-82965741D01*
X121153000Y-82984881D02*
X121672615Y-82684881D01*
X121786901Y-82882830D01*
X121790729Y-82946602D01*
X121780271Y-82985631D01*
X121745070Y-83038946D01*
X121670838Y-83081804D01*
X121607066Y-83085631D01*
X121568036Y-83075173D01*
X121514722Y-83039972D01*
X121400436Y-82842023D01*
X121908843Y-83208324D02*
X121947872Y-83218781D01*
X122001186Y-83253983D01*
X122072615Y-83377701D01*
X122076443Y-83441474D01*
X122065985Y-83480502D01*
X122030784Y-83533818D01*
X121981297Y-83562390D01*
X121892780Y-83580502D01*
X121424428Y-83455009D01*
X121610143Y-83776676D01*
X122194557Y-83703196D02*
X122233586Y-83713653D01*
X122286901Y-83748855D01*
X122358329Y-83872573D01*
X122362158Y-83936346D01*
X122351700Y-83975374D01*
X122316499Y-84028690D01*
X122267011Y-84057262D01*
X122178495Y-84075374D01*
X121710143Y-83949881D01*
X121895857Y-84271548D01*
D17*
X151213136Y-81576452D02*
X150865699Y-81606800D01*
X151041707Y-81873375D02*
X150522092Y-81573375D01*
X150636378Y-81375426D01*
X150689692Y-81340225D01*
X150728722Y-81329767D01*
X150792494Y-81333595D01*
X150866726Y-81376452D01*
X150901927Y-81429767D01*
X150912385Y-81468797D01*
X150908557Y-81532569D01*
X150794271Y-81730518D01*
X150857293Y-81107074D02*
X150846835Y-81068046D01*
X150850664Y-81004273D01*
X150922092Y-80880555D01*
X150975407Y-80845353D01*
X151014436Y-80834896D01*
X151078209Y-80838723D01*
X151127696Y-80867294D01*
X151187641Y-80934896D01*
X151313136Y-81403247D01*
X151498850Y-81081580D01*
X151079235Y-80608375D02*
X151264950Y-80286708D01*
X151362898Y-80574199D01*
X151405755Y-80499969D01*
X151459070Y-80464767D01*
X151498099Y-80454310D01*
X151561873Y-80458137D01*
X151685590Y-80529565D01*
X151720792Y-80582881D01*
X151731249Y-80621910D01*
X151727422Y-80685683D01*
X151641708Y-80834144D01*
X151588392Y-80869345D01*
X151549363Y-80879804D01*
D14*
X110435911Y-83807346D02*
X110085377Y-84009727D01*
X110056042Y-84054156D01*
X110047327Y-84086681D01*
X110050518Y-84139824D01*
X110098137Y-84222303D01*
X110142565Y-84251638D01*
X110175090Y-84260352D01*
X110228234Y-84257162D01*
X110578768Y-84054781D01*
X110816864Y-84467175D02*
X110697816Y-84260979D01*
X110479714Y-84359407D01*
X110512239Y-84368122D01*
X110556668Y-84397456D01*
X110616191Y-84500554D01*
X110619382Y-84553698D01*
X110610667Y-84586223D01*
X110581332Y-84630652D01*
X110478234Y-84690175D01*
X110425090Y-84693365D01*
X110392565Y-84684650D01*
X110348137Y-84655316D01*
X110288613Y-84552218D01*
X110285423Y-84499074D01*
X110294138Y-84466549D01*
X125672220Y-78586700D02*
X125321686Y-78789081D01*
X125292351Y-78833510D01*
X125283636Y-78866035D01*
X125286827Y-78919178D01*
X125334446Y-79001657D01*
X125378874Y-79030992D01*
X125411399Y-79039706D01*
X125464543Y-79036516D01*
X125815077Y-78834135D01*
X126041268Y-79225909D02*
X125993649Y-79143430D01*
X125949219Y-79114096D01*
X125916695Y-79105382D01*
X125831027Y-79099857D01*
X125736643Y-79126856D01*
X125571686Y-79222094D01*
X125542352Y-79266523D01*
X125533636Y-79299047D01*
X125536827Y-79352191D01*
X125584446Y-79434670D01*
X125628874Y-79464004D01*
X125661399Y-79472719D01*
X125714543Y-79469529D01*
X125817641Y-79410006D01*
X125846976Y-79365577D01*
X125855691Y-79333052D01*
X125852500Y-79279908D01*
X125804881Y-79197430D01*
X125760453Y-79168095D01*
X125727928Y-79159381D01*
X125674784Y-79162570D01*
X145386828Y-80399490D02*
X145737362Y-80601871D01*
X145790506Y-80605061D01*
X145823031Y-80596346D01*
X145867459Y-80567012D01*
X145915078Y-80484533D01*
X145918269Y-80431389D01*
X145909553Y-80398865D01*
X145880219Y-80354436D01*
X145529685Y-80152055D01*
X145624923Y-79987097D02*
X145791590Y-79698422D01*
X146117459Y-80133999D01*
D11*
X151507848Y-84919531D02*
X151518305Y-84958560D01*
X151500192Y-85047076D01*
X151471621Y-85096563D01*
X151404019Y-85156509D01*
X151325961Y-85177424D01*
X151262188Y-85173596D01*
X151148929Y-85141197D01*
X151074697Y-85098340D01*
X150990009Y-85016454D01*
X150954808Y-84963138D01*
X150933891Y-84885080D01*
X150952006Y-84796563D01*
X150980577Y-84747076D01*
X151048177Y-84687131D01*
X151087206Y-84676673D01*
X151843049Y-84453230D02*
X151671621Y-84750153D01*
X151757335Y-84601692D02*
X151237720Y-84301692D01*
X151283379Y-84394037D01*
X151304295Y-84472095D01*
X151300467Y-84535867D01*
X151423434Y-83980025D02*
X151609149Y-83658358D01*
X151707097Y-83945849D01*
X151749954Y-83871619D01*
X151803269Y-83836417D01*
X151842298Y-83825960D01*
X151906072Y-83829787D01*
X152029789Y-83901215D01*
X152064991Y-83954531D01*
X152075448Y-83993560D01*
X152071621Y-84057333D01*
X151985907Y-84205794D01*
X151932591Y-84240995D01*
X151893562Y-84251454D01*
M02*
