G04 #@! TF.FileFunction,Soldermask,Bot*
%FSLAX46Y46*%
G04 Gerber Fmt 4.6, Leading zero omitted, Abs format (unit mm)*
G04 Created by KiCad (PCBNEW 4.0.4-stable) date 06/27/17 23:49:50*
%MOMM*%
%LPD*%
G01*
G04 APERTURE LIST*
%ADD10C,0.100000*%
%ADD11R,1.790000X5.080000*%
%ADD12C,17.720000*%
%ADD13R,0.450000X1.500000*%
%ADD14O,1.150000X0.800000*%
%ADD15O,1.450000X0.800000*%
G04 APERTURE END LIST*
D10*
D11*
X146980000Y-46000000D03*
D12*
X136000000Y-46000000D03*
D11*
X125020000Y-46000000D03*
D10*
G36*
X103862795Y-78685948D02*
X108262205Y-76145948D01*
X109157205Y-77696134D01*
X104757795Y-80236134D01*
X103862795Y-78685948D01*
X103862795Y-78685948D01*
G37*
D12*
X112000000Y-87700000D03*
D10*
G36*
X114842795Y-97703866D02*
X119242205Y-95163866D01*
X120137205Y-96714052D01*
X115737795Y-99254052D01*
X114842795Y-97703866D01*
X114842795Y-97703866D01*
G37*
G36*
X155812205Y-99004052D02*
X151412795Y-96464052D01*
X152307795Y-94913866D01*
X156707205Y-97453866D01*
X155812205Y-99004052D01*
X155812205Y-99004052D01*
G37*
D12*
X159550000Y-87450000D03*
D10*
G36*
X166792205Y-79986134D02*
X162392795Y-77446134D01*
X163287795Y-75895948D01*
X167687205Y-78435948D01*
X166792205Y-79986134D01*
X166792205Y-79986134D01*
G37*
G36*
X121910640Y-76486379D02*
X123036474Y-75836379D01*
X123811474Y-77178719D01*
X122685640Y-77828719D01*
X121910640Y-76486379D01*
X121910640Y-76486379D01*
G37*
G36*
X118013526Y-78736379D02*
X119139360Y-78086379D01*
X119914360Y-79428719D01*
X118788526Y-80078719D01*
X118013526Y-78736379D01*
X118013526Y-78736379D01*
G37*
G36*
X121988526Y-85621281D02*
X123114360Y-84971281D01*
X123889360Y-86313621D01*
X122763526Y-86963621D01*
X121988526Y-85621281D01*
X121988526Y-85621281D01*
G37*
G36*
X125885640Y-83371281D02*
X127011474Y-82721281D01*
X127786474Y-84063621D01*
X126660640Y-84713621D01*
X125885640Y-83371281D01*
X125885640Y-83371281D01*
G37*
G36*
X152860640Y-77986379D02*
X153986474Y-78636379D01*
X153211474Y-79978719D01*
X152085640Y-79328719D01*
X152860640Y-77986379D01*
X152860640Y-77986379D01*
G37*
G36*
X148963526Y-75736379D02*
X150089360Y-76386379D01*
X149314360Y-77728719D01*
X148188526Y-77078719D01*
X148963526Y-75736379D01*
X148963526Y-75736379D01*
G37*
G36*
X144988526Y-82621281D02*
X146114360Y-83271281D01*
X145339360Y-84613621D01*
X144213526Y-83963621D01*
X144988526Y-82621281D01*
X144988526Y-82621281D01*
G37*
G36*
X148885640Y-84871281D02*
X150011474Y-85521281D01*
X149236474Y-86863621D01*
X148110640Y-86213621D01*
X148885640Y-84871281D01*
X148885640Y-84871281D01*
G37*
D13*
X137300000Y-58224920D03*
X136650000Y-58224920D03*
X136000000Y-58224920D03*
X135350000Y-58224920D03*
X134700000Y-58224920D03*
D14*
X138800000Y-58100000D03*
X133200000Y-58100000D03*
D15*
X136000000Y-60250000D03*
M02*
