G04 #@! TF.FileFunction,Copper,L2,Bot,Signal*
%FSLAX46Y46*%
G04 Gerber Fmt 4.6, Leading zero omitted, Abs format (unit mm)*
G04 Created by KiCad (PCBNEW 4.0.4-stable) date 05/24/17 12:53:21*
%MOMM*%
%LPD*%
G01*
G04 APERTURE LIST*
%ADD10C,0.100000*%
%ADD11R,1.790000X5.080000*%
%ADD12C,17.720000*%
%ADD13R,0.450000X1.500000*%
%ADD14O,1.150000X0.800000*%
%ADD15O,1.450000X0.800000*%
%ADD16C,0.600000*%
%ADD17C,0.890000*%
%ADD18C,0.200000*%
%ADD19C,0.400000*%
%ADD20C,0.254000*%
G04 APERTURE END LIST*
D10*
D11*
X146980000Y-46000000D03*
D12*
X136000000Y-46000000D03*
D11*
X125020000Y-46000000D03*
D10*
G36*
X103862795Y-78685948D02*
X108262205Y-76145948D01*
X109157205Y-77696134D01*
X104757795Y-80236134D01*
X103862795Y-78685948D01*
X103862795Y-78685948D01*
G37*
D12*
X112000000Y-87700000D03*
D10*
G36*
X114842795Y-97703866D02*
X119242205Y-95163866D01*
X120137205Y-96714052D01*
X115737795Y-99254052D01*
X114842795Y-97703866D01*
X114842795Y-97703866D01*
G37*
G36*
X155812205Y-99004052D02*
X151412795Y-96464052D01*
X152307795Y-94913866D01*
X156707205Y-97453866D01*
X155812205Y-99004052D01*
X155812205Y-99004052D01*
G37*
D12*
X159550000Y-87450000D03*
D10*
G36*
X166792205Y-79986134D02*
X162392795Y-77446134D01*
X163287795Y-75895948D01*
X167687205Y-78435948D01*
X166792205Y-79986134D01*
X166792205Y-79986134D01*
G37*
G36*
X121910640Y-76486379D02*
X123036474Y-75836379D01*
X123811474Y-77178719D01*
X122685640Y-77828719D01*
X121910640Y-76486379D01*
X121910640Y-76486379D01*
G37*
G36*
X118013526Y-78736379D02*
X119139360Y-78086379D01*
X119914360Y-79428719D01*
X118788526Y-80078719D01*
X118013526Y-78736379D01*
X118013526Y-78736379D01*
G37*
G36*
X121988526Y-85621281D02*
X123114360Y-84971281D01*
X123889360Y-86313621D01*
X122763526Y-86963621D01*
X121988526Y-85621281D01*
X121988526Y-85621281D01*
G37*
G36*
X125885640Y-83371281D02*
X127011474Y-82721281D01*
X127786474Y-84063621D01*
X126660640Y-84713621D01*
X125885640Y-83371281D01*
X125885640Y-83371281D01*
G37*
G36*
X152860640Y-77986379D02*
X153986474Y-78636379D01*
X153211474Y-79978719D01*
X152085640Y-79328719D01*
X152860640Y-77986379D01*
X152860640Y-77986379D01*
G37*
G36*
X148963526Y-75736379D02*
X150089360Y-76386379D01*
X149314360Y-77728719D01*
X148188526Y-77078719D01*
X148963526Y-75736379D01*
X148963526Y-75736379D01*
G37*
G36*
X144988526Y-82621281D02*
X146114360Y-83271281D01*
X145339360Y-84613621D01*
X144213526Y-83963621D01*
X144988526Y-82621281D01*
X144988526Y-82621281D01*
G37*
G36*
X148885640Y-84871281D02*
X150011474Y-85521281D01*
X149236474Y-86863621D01*
X148110640Y-86213621D01*
X148885640Y-84871281D01*
X148885640Y-84871281D01*
G37*
D13*
X137300000Y-58224920D03*
X136650000Y-58224920D03*
X136000000Y-58224920D03*
X135350000Y-58224920D03*
X134700000Y-58224920D03*
D14*
X138800000Y-58100000D03*
X133200000Y-58100000D03*
D15*
X136000000Y-60250000D03*
D16*
X162900000Y-79950000D03*
X162100000Y-93700000D03*
X158050000Y-93500000D03*
X153050000Y-88600000D03*
X116300000Y-93300000D03*
X106700000Y-92800000D03*
X116800000Y-88150000D03*
X113250000Y-81500000D03*
X106850000Y-85800000D03*
X104950000Y-89800000D03*
X104650000Y-87250000D03*
X130250000Y-50350000D03*
X133050000Y-53300000D03*
X134000000Y-40550000D03*
X132100000Y-38950000D03*
X143350000Y-46050000D03*
X153050000Y-74250000D03*
X155300000Y-74300000D03*
X141700000Y-50250000D03*
X131600000Y-52450000D03*
X128100000Y-48500000D03*
X154000000Y-85100000D03*
X139950000Y-40100000D03*
X136000000Y-46000000D03*
X109700000Y-87800000D03*
X112000000Y-87700000D03*
X115800000Y-87100000D03*
X134150000Y-59250000D03*
X134700000Y-56750000D03*
X136000000Y-46000000D03*
X151300000Y-82450000D03*
X152400000Y-80900000D03*
X145900000Y-52150000D03*
X148250000Y-84000000D03*
D17*
X109062500Y-97200000D03*
X110250000Y-97458621D03*
X111350000Y-97591380D03*
D16*
X112250000Y-97700000D03*
X124000000Y-78450000D03*
X120900000Y-79650000D03*
X144750000Y-42075000D03*
X144775000Y-50750000D03*
X142575000Y-39150000D03*
X140075000Y-36150000D03*
X125900000Y-50000000D03*
X127400000Y-54750000D03*
X117250000Y-79950000D03*
D17*
X113650000Y-78000000D03*
D16*
X131400000Y-59875000D03*
X136700000Y-55500000D03*
X135850000Y-55900000D03*
X134450000Y-60500000D03*
X102850000Y-92450000D03*
X126400000Y-51200000D03*
X125400000Y-52400000D03*
X118000000Y-72250000D03*
X121450000Y-88450000D03*
X143450000Y-57250000D03*
X139550000Y-62450000D03*
X131800000Y-62000000D03*
X124850000Y-84950000D03*
X142850000Y-60500000D03*
X150300000Y-75300000D03*
X144950000Y-49150000D03*
X153250000Y-77250000D03*
X147550000Y-68150000D03*
X147150000Y-65750000D03*
X146750000Y-66950000D03*
X146450000Y-65350000D03*
X139050000Y-55000000D03*
X121100000Y-76500000D03*
X142200000Y-57450000D03*
X140400000Y-59500000D03*
D18*
X153450000Y-74250000D02*
X153050000Y-74250000D01*
X155300000Y-74300000D02*
X153450000Y-74250000D01*
X134700000Y-58224920D02*
X134700000Y-58700000D01*
X134700000Y-58700000D02*
X134150000Y-59250000D01*
X134700000Y-58224920D02*
X134700000Y-56750000D01*
D19*
X114450000Y-78550000D02*
X113650000Y-78000000D01*
X117250000Y-79950000D02*
X114450000Y-78550000D01*
X136675000Y-61725000D02*
X133250000Y-61725000D01*
X133250000Y-61725000D02*
X131400000Y-59875000D01*
X137275000Y-61125000D02*
X136675000Y-61725000D01*
X137275000Y-60360674D02*
X137275000Y-61125000D01*
X137300000Y-58224920D02*
X137300000Y-60335674D01*
X137300000Y-60335674D02*
X137275000Y-60360674D01*
D18*
X136650000Y-58224920D02*
X136650000Y-55550000D01*
X136650000Y-55550000D02*
X136700000Y-55500000D01*
X136000000Y-58224920D02*
X136000000Y-56050000D01*
X136000000Y-56050000D02*
X135850000Y-55900000D01*
X135300000Y-59450000D02*
X134450000Y-60500000D01*
X135350000Y-58224920D02*
X135300000Y-59450000D01*
D19*
X105200000Y-96450000D02*
X102850000Y-92450000D01*
X108850000Y-98600000D02*
X105200000Y-96450000D01*
X113500000Y-99300000D02*
X108850000Y-98600000D01*
X117490000Y-97208959D02*
X113500000Y-99300000D01*
X101600000Y-89450000D02*
X102850000Y-92450000D01*
X102350000Y-82900000D02*
X101600000Y-89450000D01*
X106510000Y-78191041D02*
X102350000Y-82900000D01*
X135950000Y-87800000D02*
X154060000Y-96958959D01*
X117490000Y-97208959D02*
X135950000Y-87800000D01*
X147950000Y-66550000D02*
X165040000Y-77941041D01*
X146980000Y-46000000D02*
X147950000Y-66550000D01*
X124000000Y-67200000D02*
X125020000Y-46000000D01*
X106510000Y-78191041D02*
X124000000Y-67200000D01*
D18*
X125400000Y-52400000D02*
X126400000Y-51200000D01*
X117700000Y-78000000D02*
X118000000Y-72250000D01*
X117700000Y-79050000D02*
X117700000Y-78000000D01*
X119550000Y-81600000D02*
X117700000Y-79050000D01*
X121450000Y-85300000D02*
X119550000Y-81600000D01*
X121450000Y-88450000D02*
X121450000Y-85300000D01*
X123200000Y-71200000D02*
X126200000Y-66100000D01*
X120950000Y-82200000D02*
X122938943Y-85967451D01*
X118963943Y-79082549D02*
X120950000Y-82200000D01*
X141300000Y-59350000D02*
X143450000Y-57250000D01*
X139550000Y-62450000D02*
X141300000Y-59350000D01*
X129550000Y-62950000D02*
X131800000Y-62000000D01*
X126200000Y-66100000D02*
X129550000Y-62950000D01*
X120300000Y-75950000D02*
X123200000Y-71200000D01*
X118963943Y-79082549D02*
X120300000Y-75950000D01*
X124850000Y-84950000D02*
X122938943Y-85967451D01*
X147600000Y-71100000D02*
X150300000Y-75300000D01*
X146250000Y-68750000D02*
X147600000Y-71100000D01*
X144200000Y-65100000D02*
X146250000Y-68750000D01*
X142850000Y-60500000D02*
X144200000Y-65100000D01*
X149138943Y-76732549D02*
X149138943Y-76461057D01*
X149138943Y-76461057D02*
X150300000Y-75300000D01*
X145163943Y-83617451D02*
X149138943Y-79642451D01*
X149138943Y-79642451D02*
X149138943Y-76732549D01*
X145550000Y-49750000D02*
X144950000Y-49150000D01*
X145150000Y-51950000D02*
X145550000Y-49750000D01*
X145000000Y-54250000D02*
X145150000Y-51950000D01*
X143700000Y-61100000D02*
X145000000Y-54250000D01*
X144400000Y-63850000D02*
X143700000Y-61100000D01*
X146500000Y-68150000D02*
X144400000Y-63850000D01*
X153250000Y-77250000D02*
X146500000Y-68150000D01*
X147500000Y-68000000D02*
X147550000Y-68150000D01*
X147150000Y-65750000D02*
X147500000Y-68000000D01*
X146450000Y-65350000D02*
X146750000Y-66950000D01*
X140100000Y-58750000D02*
X139050000Y-55000000D01*
X138550000Y-62050000D02*
X140100000Y-58750000D01*
X136000000Y-62300000D02*
X138550000Y-62050000D01*
X132450000Y-62400000D02*
X136000000Y-62300000D01*
X129800000Y-63450000D02*
X132450000Y-62400000D01*
X126650000Y-66550000D02*
X129800000Y-63450000D01*
X121100000Y-76500000D02*
X126650000Y-66550000D01*
X140400000Y-59500000D02*
X142200000Y-57450000D01*
D20*
G36*
X140726777Y-35496839D02*
X144746898Y-38182997D01*
X147433059Y-42203119D01*
X147626891Y-43177574D01*
X146085000Y-43177574D01*
X145982350Y-43196889D01*
X145888073Y-43257555D01*
X145824825Y-43350120D01*
X145802574Y-43460000D01*
X145802574Y-48540000D01*
X145821889Y-48642650D01*
X145882555Y-48736927D01*
X145975120Y-48800175D01*
X146085000Y-48822426D01*
X146635692Y-48822426D01*
X147410319Y-65233328D01*
X147265276Y-65173100D01*
X147035731Y-65172900D01*
X147006183Y-65185109D01*
X146939442Y-65023583D01*
X146777271Y-64861129D01*
X146565276Y-64773100D01*
X146335731Y-64772900D01*
X146123583Y-64860558D01*
X145961129Y-65022729D01*
X145873100Y-65234724D01*
X145872900Y-65464269D01*
X145960558Y-65676417D01*
X146122729Y-65838871D01*
X146161079Y-65854796D01*
X146298139Y-66585783D01*
X146261129Y-66622729D01*
X146220943Y-66719506D01*
X144755782Y-63719414D01*
X144537541Y-62862037D01*
X144979456Y-63157316D01*
X145582948Y-63277358D01*
X146186440Y-63157316D01*
X146698055Y-62815465D01*
X147039906Y-62303850D01*
X147159948Y-61700358D01*
X147039906Y-61096866D01*
X146698055Y-60585251D01*
X146186440Y-60243400D01*
X145582948Y-60123358D01*
X144979456Y-60243400D01*
X144467841Y-60585251D01*
X144125990Y-61096866D01*
X144109424Y-61180149D01*
X144085990Y-61088088D01*
X145370389Y-54320293D01*
X145370184Y-54297019D01*
X145376201Y-54274535D01*
X145524792Y-51996138D01*
X145920919Y-49817440D01*
X145920357Y-49783395D01*
X145927000Y-49750000D01*
X145919156Y-49710566D01*
X145918493Y-49670361D01*
X145904946Y-49639123D01*
X145898303Y-49605728D01*
X145875963Y-49572294D01*
X145859966Y-49535408D01*
X145835496Y-49511732D01*
X145816579Y-49483421D01*
X145526962Y-49193804D01*
X145527100Y-49035731D01*
X145439442Y-48823583D01*
X145277271Y-48661129D01*
X145065276Y-48573100D01*
X144835731Y-48572900D01*
X144822820Y-48578235D01*
X145135410Y-47825435D01*
X145138582Y-44190512D01*
X143750488Y-40831067D01*
X141182452Y-38258545D01*
X137825435Y-36864590D01*
X134190512Y-36861418D01*
X130831067Y-38249512D01*
X128258545Y-40817548D01*
X126864590Y-44174565D01*
X126861418Y-47809488D01*
X128249512Y-51168933D01*
X130817548Y-53741455D01*
X134174565Y-55135410D01*
X136246702Y-55137218D01*
X136211129Y-55172729D01*
X136123100Y-55384724D01*
X136123097Y-55388634D01*
X135965276Y-55323100D01*
X135735731Y-55322900D01*
X135523583Y-55410558D01*
X135361129Y-55572729D01*
X135273100Y-55784724D01*
X135272900Y-56014269D01*
X135360558Y-56226417D01*
X135522729Y-56388871D01*
X135623000Y-56430508D01*
X135623000Y-57202214D01*
X135575000Y-57192494D01*
X135125000Y-57192494D01*
X135077000Y-57201526D01*
X135077000Y-57188947D01*
X135188871Y-57077271D01*
X135276900Y-56865276D01*
X135277100Y-56635731D01*
X135189442Y-56423583D01*
X135027271Y-56261129D01*
X134815276Y-56173100D01*
X134585731Y-56172900D01*
X134373583Y-56260558D01*
X134211129Y-56422729D01*
X134123100Y-56634724D01*
X134122900Y-56864269D01*
X134210558Y-57076417D01*
X134323000Y-57189055D01*
X134323000Y-57243565D01*
X134278073Y-57272475D01*
X134214825Y-57365040D01*
X134192574Y-57474920D01*
X134192574Y-58673037D01*
X134035731Y-58672900D01*
X133823583Y-58760558D01*
X133661129Y-58922729D01*
X133573100Y-59134724D01*
X133572900Y-59364269D01*
X133660558Y-59576417D01*
X133822729Y-59738871D01*
X134034724Y-59826900D01*
X134264269Y-59827100D01*
X134476417Y-59739442D01*
X134638871Y-59577271D01*
X134726900Y-59365276D01*
X134726994Y-59257346D01*
X134925000Y-59257346D01*
X134930592Y-59256294D01*
X134928406Y-59309852D01*
X134432062Y-59922984D01*
X134335731Y-59922900D01*
X134123583Y-60010558D01*
X133961129Y-60172729D01*
X133873100Y-60384724D01*
X133872900Y-60614269D01*
X133960558Y-60826417D01*
X134122729Y-60988871D01*
X134334724Y-61076900D01*
X134564269Y-61077100D01*
X134776417Y-60989442D01*
X134938871Y-60827271D01*
X135026900Y-60615276D01*
X135027005Y-60494504D01*
X135029904Y-60509077D01*
X135176659Y-60728711D01*
X135396293Y-60875466D01*
X135655370Y-60927000D01*
X136344630Y-60927000D01*
X136603707Y-60875466D01*
X136798000Y-60745643D01*
X136798000Y-60927420D01*
X136477420Y-61248000D01*
X133447580Y-61248000D01*
X131977085Y-59777505D01*
X131977100Y-59760731D01*
X131889442Y-59548583D01*
X131727271Y-59386129D01*
X131515276Y-59298100D01*
X131285731Y-59297900D01*
X131073583Y-59385558D01*
X130911129Y-59547729D01*
X130823100Y-59759724D01*
X130822900Y-59989269D01*
X130910558Y-60201417D01*
X131072729Y-60363871D01*
X131284724Y-60451900D01*
X131302335Y-60451915D01*
X132861674Y-62011254D01*
X132439384Y-62023149D01*
X132376968Y-62037402D01*
X132377100Y-61885731D01*
X132289442Y-61673583D01*
X132127271Y-61511129D01*
X131915276Y-61423100D01*
X131685731Y-61422900D01*
X131473583Y-61510558D01*
X131311129Y-61672729D01*
X131248463Y-61823645D01*
X129403358Y-62602689D01*
X129348243Y-62640061D01*
X129291745Y-62675348D01*
X125941745Y-65825348D01*
X125910660Y-65868908D01*
X125875051Y-65908853D01*
X122876608Y-71006206D01*
X119978229Y-75753550D01*
X119968748Y-75779381D01*
X119953224Y-75802097D01*
X119097500Y-77808447D01*
X118998147Y-77841791D01*
X118077000Y-78373615D01*
X118077000Y-78009830D01*
X118353381Y-72712525D01*
X118488871Y-72577271D01*
X118576900Y-72365276D01*
X118577100Y-72135731D01*
X118489442Y-71923583D01*
X118327271Y-71761129D01*
X118115276Y-71673100D01*
X117885731Y-71672900D01*
X117673583Y-71760558D01*
X117511129Y-71922729D01*
X117423100Y-72134724D01*
X117422900Y-72364269D01*
X117510558Y-72576417D01*
X117600743Y-72666760D01*
X117323512Y-77980357D01*
X117324945Y-77990223D01*
X117323000Y-78000000D01*
X117323000Y-79050000D01*
X117331646Y-79093467D01*
X117333355Y-79137756D01*
X117345861Y-79164933D01*
X117351697Y-79194272D01*
X117376320Y-79231123D01*
X117394848Y-79271385D01*
X117513205Y-79434526D01*
X117365276Y-79373100D01*
X117162452Y-79372923D01*
X114692941Y-78138168D01*
X114372072Y-77917571D01*
X114372125Y-77857015D01*
X114262439Y-77591554D01*
X114059514Y-77388275D01*
X113794245Y-77278125D01*
X113507015Y-77277875D01*
X113241554Y-77387561D01*
X113038275Y-77590486D01*
X112928125Y-77855755D01*
X112927875Y-78142985D01*
X113037561Y-78408446D01*
X113192882Y-78564038D01*
X110190512Y-78561418D01*
X106831067Y-79949512D01*
X104258545Y-82517548D01*
X102864590Y-85874565D01*
X102861418Y-89509488D01*
X104249512Y-92868933D01*
X106817548Y-95441455D01*
X110174565Y-96835410D01*
X113809488Y-96838582D01*
X117168933Y-95450488D01*
X119741455Y-92882452D01*
X121135410Y-89525435D01*
X121135917Y-88944347D01*
X121334724Y-89026900D01*
X121564269Y-89027100D01*
X121776417Y-88939442D01*
X121938871Y-88777271D01*
X122026900Y-88565276D01*
X122027100Y-88335731D01*
X121952380Y-88154895D01*
X128732412Y-88154895D01*
X128852454Y-88758387D01*
X129194305Y-89270002D01*
X129705920Y-89611853D01*
X130309412Y-89731895D01*
X130912904Y-89611853D01*
X131424519Y-89270002D01*
X131766370Y-88758387D01*
X131886412Y-88154895D01*
X131766370Y-87551403D01*
X131424519Y-87039788D01*
X130912904Y-86697937D01*
X130309412Y-86577895D01*
X129705920Y-86697937D01*
X129194305Y-87039788D01*
X128852454Y-87551403D01*
X128732412Y-88154895D01*
X121952380Y-88154895D01*
X121939442Y-88123583D01*
X121827000Y-88010945D01*
X121827000Y-85906362D01*
X122518938Y-87104834D01*
X122586990Y-87184074D01*
X122686667Y-87235388D01*
X122798455Y-87243879D01*
X122904739Y-87208209D01*
X124030573Y-86558209D01*
X124109813Y-86490157D01*
X124161127Y-86390480D01*
X124169618Y-86278692D01*
X124161991Y-86255965D01*
X147464587Y-86255965D01*
X147529969Y-86499976D01*
X147683753Y-86700392D01*
X147902527Y-86826701D01*
X148108590Y-86945672D01*
X148325447Y-86887565D01*
X148887572Y-85913936D01*
X148726544Y-85820966D01*
X149234542Y-85820966D01*
X150099918Y-86320591D01*
X150316775Y-86262484D01*
X150414181Y-86093773D01*
X150411418Y-89259488D01*
X151799512Y-92618933D01*
X154367548Y-95191455D01*
X157724565Y-96585410D01*
X161359488Y-96588582D01*
X164718933Y-95200488D01*
X167291455Y-92632452D01*
X168685410Y-89275435D01*
X168688582Y-85640512D01*
X167300488Y-82281067D01*
X164732452Y-79708545D01*
X161375435Y-78314590D01*
X157740512Y-78311418D01*
X154381067Y-79699512D01*
X153731581Y-80347865D01*
X154006025Y-79872516D01*
X153947918Y-79655659D01*
X153082542Y-79156034D01*
X152520417Y-80129663D01*
X152578524Y-80346520D01*
X152784587Y-80465490D01*
X153003361Y-80591800D01*
X153253818Y-80624773D01*
X153497829Y-80559390D01*
X153592317Y-80486887D01*
X151808545Y-82267548D01*
X150581917Y-85221597D01*
X150438361Y-85034510D01*
X150219587Y-84908201D01*
X150013524Y-84789230D01*
X149796667Y-84847337D01*
X149234542Y-85820966D01*
X148726544Y-85820966D01*
X148022196Y-85414311D01*
X147805339Y-85472418D01*
X147497560Y-86005507D01*
X147464587Y-86255965D01*
X124161991Y-86255965D01*
X124133948Y-86172408D01*
X123951088Y-85855685D01*
X124641414Y-85488154D01*
X124734724Y-85526900D01*
X124964269Y-85527100D01*
X125176417Y-85439442D01*
X125338871Y-85277271D01*
X125426900Y-85065276D01*
X125427100Y-84835731D01*
X125339442Y-84623583D01*
X125323306Y-84607418D01*
X125866089Y-84607418D01*
X126173869Y-85140507D01*
X126374285Y-85294292D01*
X126618296Y-85359675D01*
X126868753Y-85326702D01*
X127087527Y-85200392D01*
X127293590Y-85081422D01*
X127351697Y-84864565D01*
X126789572Y-83890936D01*
X125924196Y-84390561D01*
X125866089Y-84607418D01*
X125323306Y-84607418D01*
X125177271Y-84461129D01*
X124965276Y-84373100D01*
X124735731Y-84372900D01*
X124523583Y-84460558D01*
X124361129Y-84622729D01*
X124275596Y-84828712D01*
X123573865Y-85202315D01*
X123358948Y-84830068D01*
X123290896Y-84750828D01*
X123191219Y-84699514D01*
X123079431Y-84691023D01*
X122973147Y-84726693D01*
X122771642Y-84843032D01*
X121972309Y-83328937D01*
X125239587Y-83328937D01*
X125272560Y-83579395D01*
X125580339Y-84112484D01*
X125797196Y-84170591D01*
X126501543Y-83763936D01*
X127009542Y-83763936D01*
X127571667Y-84737565D01*
X127788524Y-84795672D01*
X127994587Y-84676701D01*
X128213361Y-84550392D01*
X128367145Y-84349976D01*
X128432527Y-84105965D01*
X128399554Y-83855507D01*
X128091775Y-83322418D01*
X127874918Y-83264311D01*
X127009542Y-83763936D01*
X126501543Y-83763936D01*
X126662572Y-83670966D01*
X126100447Y-82697337D01*
X125883590Y-82639230D01*
X125677527Y-82758201D01*
X125458753Y-82884510D01*
X125304969Y-83084926D01*
X125239587Y-83328937D01*
X121972309Y-83328937D01*
X121571823Y-82570337D01*
X126320417Y-82570337D01*
X126882542Y-83543966D01*
X127747918Y-83044341D01*
X127806025Y-82827484D01*
X127498245Y-82294395D01*
X127297829Y-82140610D01*
X127053818Y-82075227D01*
X126803361Y-82108200D01*
X126584587Y-82234510D01*
X126378524Y-82353480D01*
X126320417Y-82570337D01*
X121571823Y-82570337D01*
X121283392Y-82023993D01*
X121273592Y-82011925D01*
X121267957Y-81997436D01*
X119859447Y-79786541D01*
X120055573Y-79673307D01*
X120134813Y-79605255D01*
X120186127Y-79505578D01*
X120194618Y-79393790D01*
X120158948Y-79287506D01*
X119657110Y-78418296D01*
X119953865Y-77722516D01*
X121891089Y-77722516D01*
X122198869Y-78255605D01*
X122399285Y-78409390D01*
X122643296Y-78474773D01*
X122893753Y-78441800D01*
X123112527Y-78315490D01*
X123318590Y-78196520D01*
X123376697Y-77979663D01*
X122814572Y-77006034D01*
X121949196Y-77505659D01*
X121891089Y-77722516D01*
X119953865Y-77722516D01*
X120523097Y-76387883D01*
X120522900Y-76614269D01*
X120610558Y-76826417D01*
X120772729Y-76988871D01*
X120984724Y-77076900D01*
X121214269Y-77077100D01*
X121426417Y-76989442D01*
X121452700Y-76963204D01*
X121605339Y-77227582D01*
X121822196Y-77285689D01*
X122526543Y-76879034D01*
X123034542Y-76879034D01*
X123596667Y-77852663D01*
X123813524Y-77910770D01*
X124019587Y-77791799D01*
X124238361Y-77665490D01*
X124392145Y-77465074D01*
X124457527Y-77221063D01*
X124424554Y-76970605D01*
X124116775Y-76437516D01*
X123899918Y-76379409D01*
X123034542Y-76879034D01*
X122526543Y-76879034D01*
X122687572Y-76786064D01*
X122125447Y-75812435D01*
X121942536Y-75763424D01*
X121986037Y-75685435D01*
X122345417Y-75685435D01*
X122907542Y-76659064D01*
X123772918Y-76159439D01*
X123831025Y-75942582D01*
X123523245Y-75409493D01*
X123322829Y-75255708D01*
X123078818Y-75190325D01*
X122828361Y-75223298D01*
X122609587Y-75349608D01*
X122403524Y-75468578D01*
X122345417Y-75685435D01*
X121986037Y-75685435D01*
X126952935Y-66780817D01*
X127824780Y-65922810D01*
X125473743Y-69441388D01*
X124607720Y-73795177D01*
X125473743Y-78148966D01*
X127939966Y-81839931D01*
X131630931Y-84306154D01*
X135984720Y-85172177D01*
X136963507Y-84977484D01*
X148091089Y-84977484D01*
X148149196Y-85194341D01*
X149014572Y-85693966D01*
X149576697Y-84720337D01*
X149518590Y-84503480D01*
X149312527Y-84384510D01*
X149093753Y-84258200D01*
X148843296Y-84225227D01*
X148599285Y-84290610D01*
X148398869Y-84444395D01*
X148091089Y-84977484D01*
X136963507Y-84977484D01*
X140338509Y-84306154D01*
X144029474Y-81839931D01*
X146495697Y-78148966D01*
X147361720Y-73795177D01*
X146645745Y-70195728D01*
X147273101Y-71287793D01*
X147279380Y-71294984D01*
X147282876Y-71303866D01*
X149744532Y-75133109D01*
X149723100Y-75184724D01*
X149722961Y-75343880D01*
X149402905Y-75663937D01*
X149104739Y-75491791D01*
X149006184Y-75457193D01*
X148894204Y-75462593D01*
X148793148Y-75511133D01*
X148718938Y-75595166D01*
X147943938Y-76937506D01*
X147909340Y-77036061D01*
X147914740Y-77148041D01*
X147963280Y-77249097D01*
X148047313Y-77323307D01*
X148761943Y-77735898D01*
X148761943Y-79486293D01*
X145600024Y-82648212D01*
X145129739Y-82376693D01*
X145031184Y-82342095D01*
X144919204Y-82347495D01*
X144818148Y-82396035D01*
X144743938Y-82480068D01*
X143968938Y-83822408D01*
X143934340Y-83920963D01*
X143939740Y-84032943D01*
X143988280Y-84133999D01*
X144072313Y-84208209D01*
X145198147Y-84858209D01*
X145296702Y-84892807D01*
X145408682Y-84887407D01*
X145509738Y-84838867D01*
X145583948Y-84754834D01*
X146358948Y-83412494D01*
X146393546Y-83313939D01*
X146388146Y-83201959D01*
X146339606Y-83100903D01*
X146272718Y-83041834D01*
X149405522Y-79909030D01*
X149487246Y-79786723D01*
X149515943Y-79642451D01*
X149515943Y-79371063D01*
X151439587Y-79371063D01*
X151504969Y-79615074D01*
X151658753Y-79815490D01*
X151877527Y-79941799D01*
X152083590Y-80060770D01*
X152300447Y-80002663D01*
X152862572Y-79029034D01*
X152701544Y-78936064D01*
X153209542Y-78936064D01*
X154074918Y-79435689D01*
X154291775Y-79377582D01*
X154599554Y-78844493D01*
X154632527Y-78594035D01*
X154567145Y-78350024D01*
X154413361Y-78149608D01*
X154194587Y-78023299D01*
X153988524Y-77904328D01*
X153771667Y-77962435D01*
X153209542Y-78936064D01*
X152701544Y-78936064D01*
X151997196Y-78529409D01*
X151780339Y-78587516D01*
X151472560Y-79120605D01*
X151439587Y-79371063D01*
X149515943Y-79371063D01*
X149515943Y-77918629D01*
X149558948Y-77869932D01*
X150333948Y-76527592D01*
X150368546Y-76429037D01*
X150363146Y-76317057D01*
X150314606Y-76216001D01*
X150230573Y-76141791D01*
X150078923Y-76054236D01*
X150256196Y-75876962D01*
X150414269Y-75877100D01*
X150626417Y-75789442D01*
X150788871Y-75627271D01*
X150876900Y-75415276D01*
X150877100Y-75185731D01*
X150789442Y-74973583D01*
X150627271Y-74811129D01*
X150415276Y-74723100D01*
X150377295Y-74723067D01*
X147922215Y-70904053D01*
X147402884Y-70000032D01*
X152680996Y-77115709D01*
X152673100Y-77134724D01*
X152672900Y-77364269D01*
X152678486Y-77377787D01*
X152574285Y-77405708D01*
X152373869Y-77559493D01*
X152066089Y-78092582D01*
X152124196Y-78309439D01*
X152989572Y-78809064D01*
X153551697Y-77835435D01*
X153531004Y-77758206D01*
X153576417Y-77739442D01*
X153738871Y-77577271D01*
X153826900Y-77365276D01*
X153827100Y-77135731D01*
X153739442Y-76923583D01*
X153577271Y-76761129D01*
X153365276Y-76673100D01*
X153291425Y-76673036D01*
X151578879Y-74364269D01*
X152472900Y-74364269D01*
X152560558Y-74576417D01*
X152722729Y-74738871D01*
X152934724Y-74826900D01*
X153164269Y-74827100D01*
X153376417Y-74739442D01*
X153487892Y-74628161D01*
X154849023Y-74664949D01*
X154972729Y-74788871D01*
X155184724Y-74876900D01*
X155414269Y-74877100D01*
X155626417Y-74789442D01*
X155788871Y-74627271D01*
X155876900Y-74415276D01*
X155877100Y-74185731D01*
X155789442Y-73973583D01*
X155627271Y-73811129D01*
X155415276Y-73723100D01*
X155185731Y-73722900D01*
X154973583Y-73810558D01*
X154872652Y-73911313D01*
X153489886Y-73873941D01*
X153377271Y-73761129D01*
X153165276Y-73673100D01*
X152935731Y-73672900D01*
X152723583Y-73760558D01*
X152561129Y-73922729D01*
X152473100Y-74134724D01*
X152472900Y-74364269D01*
X151578879Y-74364269D01*
X150461832Y-72858325D01*
X150654757Y-72987234D01*
X151258249Y-73107276D01*
X151861741Y-72987234D01*
X152373356Y-72645383D01*
X152715207Y-72133768D01*
X152835249Y-71530276D01*
X152715207Y-70926784D01*
X152373356Y-70415169D01*
X151861741Y-70073318D01*
X151258249Y-69953276D01*
X150654757Y-70073318D01*
X150143142Y-70415169D01*
X149801291Y-70926784D01*
X149681249Y-71530276D01*
X149756186Y-71907010D01*
X147380662Y-68704451D01*
X147434724Y-68726900D01*
X147664269Y-68727100D01*
X147876417Y-68639442D01*
X148038871Y-68477271D01*
X148126900Y-68265276D01*
X148127100Y-68035731D01*
X148039442Y-67823583D01*
X147877271Y-67661129D01*
X147825475Y-67639621D01*
X147721454Y-66970914D01*
X162447595Y-76786365D01*
X162148207Y-77304921D01*
X162113609Y-77403476D01*
X162119009Y-77515456D01*
X162167549Y-77616512D01*
X162251582Y-77690722D01*
X166650992Y-80230722D01*
X166749547Y-80265320D01*
X166861527Y-80259920D01*
X166962583Y-80211380D01*
X167036793Y-80127347D01*
X167892428Y-78645343D01*
X169068411Y-79676652D01*
X171206858Y-84012993D01*
X171523080Y-88837604D01*
X169968933Y-93415972D01*
X166781021Y-97051090D01*
X162444680Y-99189537D01*
X157620069Y-99505759D01*
X156138939Y-99002983D01*
X156951793Y-97595079D01*
X156986391Y-97496524D01*
X156980991Y-97384544D01*
X156932451Y-97283488D01*
X156848418Y-97209278D01*
X152449008Y-94669278D01*
X152350453Y-94634680D01*
X152238473Y-94640080D01*
X152137417Y-94688620D01*
X152063207Y-94772653D01*
X151776355Y-95269495D01*
X137708664Y-88154895D01*
X140083028Y-88154895D01*
X140203070Y-88758387D01*
X140544921Y-89270002D01*
X141056536Y-89611853D01*
X141660028Y-89731895D01*
X142263520Y-89611853D01*
X142775135Y-89270002D01*
X143116986Y-88758387D01*
X143237028Y-88154895D01*
X143116986Y-87551403D01*
X142775135Y-87039788D01*
X142737387Y-87014565D01*
X148545417Y-87014565D01*
X148603524Y-87231422D01*
X148809587Y-87350392D01*
X149028361Y-87476702D01*
X149278818Y-87509675D01*
X149522829Y-87444292D01*
X149723245Y-87290507D01*
X150031025Y-86757418D01*
X149972918Y-86540561D01*
X149107542Y-86040936D01*
X148545417Y-87014565D01*
X142737387Y-87014565D01*
X142263520Y-86697937D01*
X141660028Y-86577895D01*
X141056536Y-86697937D01*
X140544921Y-87039788D01*
X140203070Y-87551403D01*
X140083028Y-88154895D01*
X137708664Y-88154895D01*
X136165273Y-87374340D01*
X136129632Y-87364404D01*
X136097341Y-87346326D01*
X136040816Y-87339644D01*
X135985994Y-87324360D01*
X135949262Y-87328820D01*
X135912511Y-87324475D01*
X135857732Y-87339933D01*
X135801234Y-87346792D01*
X135769003Y-87364970D01*
X135733390Y-87375019D01*
X119769236Y-95511859D01*
X119486793Y-95022653D01*
X119418741Y-94943413D01*
X119319064Y-94892099D01*
X119207276Y-94883608D01*
X119100992Y-94919278D01*
X114701582Y-97459278D01*
X114622342Y-97527330D01*
X114571028Y-97627007D01*
X114562537Y-97738795D01*
X114598207Y-97845079D01*
X114749284Y-98106752D01*
X113416751Y-98805094D01*
X109012434Y-98142078D01*
X105548638Y-96101760D01*
X103426965Y-92490402D01*
X103427100Y-92335731D01*
X103339442Y-92123583D01*
X103177271Y-91961129D01*
X103160080Y-91953991D01*
X102088014Y-89381031D01*
X102806832Y-83103348D01*
X105357644Y-80215929D01*
X109298418Y-77940722D01*
X109377658Y-77872670D01*
X109428972Y-77772993D01*
X109437463Y-77661205D01*
X109401793Y-77554921D01*
X109140078Y-77101618D01*
X119462803Y-70614626D01*
X119254225Y-70926784D01*
X119134183Y-71530276D01*
X119254225Y-72133768D01*
X119596076Y-72645383D01*
X120107691Y-72987234D01*
X120711183Y-73107276D01*
X121314675Y-72987234D01*
X121826290Y-72645383D01*
X122168141Y-72133768D01*
X122288183Y-71530276D01*
X122168141Y-70926784D01*
X121826290Y-70415169D01*
X121314675Y-70073318D01*
X120711183Y-69953276D01*
X120424446Y-70010312D01*
X124253802Y-67603873D01*
X124284487Y-67574859D01*
X124320691Y-67553110D01*
X124351458Y-67511537D01*
X124389038Y-67476005D01*
X124406286Y-67437455D01*
X124431409Y-67403508D01*
X124443924Y-67353328D01*
X124465047Y-67306117D01*
X124466229Y-67263898D01*
X124476449Y-67222923D01*
X124742157Y-61700358D01*
X124809492Y-61700358D01*
X124929534Y-62303850D01*
X125271385Y-62815465D01*
X125783000Y-63157316D01*
X126386492Y-63277358D01*
X126989984Y-63157316D01*
X127501599Y-62815465D01*
X127843450Y-62303850D01*
X127963492Y-61700358D01*
X127843450Y-61096866D01*
X127501599Y-60585251D01*
X126989984Y-60243400D01*
X126386492Y-60123358D01*
X125783000Y-60243400D01*
X125271385Y-60585251D01*
X124929534Y-61096866D01*
X124809492Y-61700358D01*
X124742157Y-61700358D01*
X124915381Y-58100000D01*
X132331308Y-58100000D01*
X132382842Y-58359077D01*
X132529597Y-58578711D01*
X132749231Y-58725466D01*
X133008308Y-58777000D01*
X133391692Y-58777000D01*
X133650769Y-58725466D01*
X133870403Y-58578711D01*
X134017158Y-58359077D01*
X134068692Y-58100000D01*
X134017158Y-57840923D01*
X133870403Y-57621289D01*
X133650769Y-57474534D01*
X133391692Y-57423000D01*
X133008308Y-57423000D01*
X132749231Y-57474534D01*
X132529597Y-57621289D01*
X132382842Y-57840923D01*
X132331308Y-58100000D01*
X124915381Y-58100000D01*
X125164277Y-52926886D01*
X125284724Y-52976900D01*
X125514269Y-52977100D01*
X125726417Y-52889442D01*
X125888871Y-52727271D01*
X125976900Y-52515276D01*
X125977091Y-52296384D01*
X126409903Y-51777009D01*
X126514269Y-51777100D01*
X126726417Y-51689442D01*
X126888871Y-51527271D01*
X126976900Y-51315276D01*
X126977100Y-51085731D01*
X126889442Y-50873583D01*
X126727271Y-50711129D01*
X126515276Y-50623100D01*
X126285731Y-50622900D01*
X126073583Y-50710558D01*
X125911129Y-50872729D01*
X125823100Y-51084724D01*
X125822909Y-51303616D01*
X125390097Y-51822991D01*
X125285731Y-51822900D01*
X125216007Y-51851709D01*
X125361756Y-48822426D01*
X125915000Y-48822426D01*
X126017650Y-48803111D01*
X126111927Y-48742445D01*
X126175175Y-48649880D01*
X126197426Y-48540000D01*
X126197426Y-43460000D01*
X126178111Y-43357350D01*
X126117445Y-43263073D01*
X126024880Y-43199825D01*
X125915000Y-43177574D01*
X124342550Y-43177574D01*
X124536381Y-42203121D01*
X127222539Y-38183000D01*
X131242661Y-35496839D01*
X135984719Y-34553585D01*
X140726777Y-35496839D01*
X140726777Y-35496839D01*
G37*
X140726777Y-35496839D02*
X144746898Y-38182997D01*
X147433059Y-42203119D01*
X147626891Y-43177574D01*
X146085000Y-43177574D01*
X145982350Y-43196889D01*
X145888073Y-43257555D01*
X145824825Y-43350120D01*
X145802574Y-43460000D01*
X145802574Y-48540000D01*
X145821889Y-48642650D01*
X145882555Y-48736927D01*
X145975120Y-48800175D01*
X146085000Y-48822426D01*
X146635692Y-48822426D01*
X147410319Y-65233328D01*
X147265276Y-65173100D01*
X147035731Y-65172900D01*
X147006183Y-65185109D01*
X146939442Y-65023583D01*
X146777271Y-64861129D01*
X146565276Y-64773100D01*
X146335731Y-64772900D01*
X146123583Y-64860558D01*
X145961129Y-65022729D01*
X145873100Y-65234724D01*
X145872900Y-65464269D01*
X145960558Y-65676417D01*
X146122729Y-65838871D01*
X146161079Y-65854796D01*
X146298139Y-66585783D01*
X146261129Y-66622729D01*
X146220943Y-66719506D01*
X144755782Y-63719414D01*
X144537541Y-62862037D01*
X144979456Y-63157316D01*
X145582948Y-63277358D01*
X146186440Y-63157316D01*
X146698055Y-62815465D01*
X147039906Y-62303850D01*
X147159948Y-61700358D01*
X147039906Y-61096866D01*
X146698055Y-60585251D01*
X146186440Y-60243400D01*
X145582948Y-60123358D01*
X144979456Y-60243400D01*
X144467841Y-60585251D01*
X144125990Y-61096866D01*
X144109424Y-61180149D01*
X144085990Y-61088088D01*
X145370389Y-54320293D01*
X145370184Y-54297019D01*
X145376201Y-54274535D01*
X145524792Y-51996138D01*
X145920919Y-49817440D01*
X145920357Y-49783395D01*
X145927000Y-49750000D01*
X145919156Y-49710566D01*
X145918493Y-49670361D01*
X145904946Y-49639123D01*
X145898303Y-49605728D01*
X145875963Y-49572294D01*
X145859966Y-49535408D01*
X145835496Y-49511732D01*
X145816579Y-49483421D01*
X145526962Y-49193804D01*
X145527100Y-49035731D01*
X145439442Y-48823583D01*
X145277271Y-48661129D01*
X145065276Y-48573100D01*
X144835731Y-48572900D01*
X144822820Y-48578235D01*
X145135410Y-47825435D01*
X145138582Y-44190512D01*
X143750488Y-40831067D01*
X141182452Y-38258545D01*
X137825435Y-36864590D01*
X134190512Y-36861418D01*
X130831067Y-38249512D01*
X128258545Y-40817548D01*
X126864590Y-44174565D01*
X126861418Y-47809488D01*
X128249512Y-51168933D01*
X130817548Y-53741455D01*
X134174565Y-55135410D01*
X136246702Y-55137218D01*
X136211129Y-55172729D01*
X136123100Y-55384724D01*
X136123097Y-55388634D01*
X135965276Y-55323100D01*
X135735731Y-55322900D01*
X135523583Y-55410558D01*
X135361129Y-55572729D01*
X135273100Y-55784724D01*
X135272900Y-56014269D01*
X135360558Y-56226417D01*
X135522729Y-56388871D01*
X135623000Y-56430508D01*
X135623000Y-57202214D01*
X135575000Y-57192494D01*
X135125000Y-57192494D01*
X135077000Y-57201526D01*
X135077000Y-57188947D01*
X135188871Y-57077271D01*
X135276900Y-56865276D01*
X135277100Y-56635731D01*
X135189442Y-56423583D01*
X135027271Y-56261129D01*
X134815276Y-56173100D01*
X134585731Y-56172900D01*
X134373583Y-56260558D01*
X134211129Y-56422729D01*
X134123100Y-56634724D01*
X134122900Y-56864269D01*
X134210558Y-57076417D01*
X134323000Y-57189055D01*
X134323000Y-57243565D01*
X134278073Y-57272475D01*
X134214825Y-57365040D01*
X134192574Y-57474920D01*
X134192574Y-58673037D01*
X134035731Y-58672900D01*
X133823583Y-58760558D01*
X133661129Y-58922729D01*
X133573100Y-59134724D01*
X133572900Y-59364269D01*
X133660558Y-59576417D01*
X133822729Y-59738871D01*
X134034724Y-59826900D01*
X134264269Y-59827100D01*
X134476417Y-59739442D01*
X134638871Y-59577271D01*
X134726900Y-59365276D01*
X134726994Y-59257346D01*
X134925000Y-59257346D01*
X134930592Y-59256294D01*
X134928406Y-59309852D01*
X134432062Y-59922984D01*
X134335731Y-59922900D01*
X134123583Y-60010558D01*
X133961129Y-60172729D01*
X133873100Y-60384724D01*
X133872900Y-60614269D01*
X133960558Y-60826417D01*
X134122729Y-60988871D01*
X134334724Y-61076900D01*
X134564269Y-61077100D01*
X134776417Y-60989442D01*
X134938871Y-60827271D01*
X135026900Y-60615276D01*
X135027005Y-60494504D01*
X135029904Y-60509077D01*
X135176659Y-60728711D01*
X135396293Y-60875466D01*
X135655370Y-60927000D01*
X136344630Y-60927000D01*
X136603707Y-60875466D01*
X136798000Y-60745643D01*
X136798000Y-60927420D01*
X136477420Y-61248000D01*
X133447580Y-61248000D01*
X131977085Y-59777505D01*
X131977100Y-59760731D01*
X131889442Y-59548583D01*
X131727271Y-59386129D01*
X131515276Y-59298100D01*
X131285731Y-59297900D01*
X131073583Y-59385558D01*
X130911129Y-59547729D01*
X130823100Y-59759724D01*
X130822900Y-59989269D01*
X130910558Y-60201417D01*
X131072729Y-60363871D01*
X131284724Y-60451900D01*
X131302335Y-60451915D01*
X132861674Y-62011254D01*
X132439384Y-62023149D01*
X132376968Y-62037402D01*
X132377100Y-61885731D01*
X132289442Y-61673583D01*
X132127271Y-61511129D01*
X131915276Y-61423100D01*
X131685731Y-61422900D01*
X131473583Y-61510558D01*
X131311129Y-61672729D01*
X131248463Y-61823645D01*
X129403358Y-62602689D01*
X129348243Y-62640061D01*
X129291745Y-62675348D01*
X125941745Y-65825348D01*
X125910660Y-65868908D01*
X125875051Y-65908853D01*
X122876608Y-71006206D01*
X119978229Y-75753550D01*
X119968748Y-75779381D01*
X119953224Y-75802097D01*
X119097500Y-77808447D01*
X118998147Y-77841791D01*
X118077000Y-78373615D01*
X118077000Y-78009830D01*
X118353381Y-72712525D01*
X118488871Y-72577271D01*
X118576900Y-72365276D01*
X118577100Y-72135731D01*
X118489442Y-71923583D01*
X118327271Y-71761129D01*
X118115276Y-71673100D01*
X117885731Y-71672900D01*
X117673583Y-71760558D01*
X117511129Y-71922729D01*
X117423100Y-72134724D01*
X117422900Y-72364269D01*
X117510558Y-72576417D01*
X117600743Y-72666760D01*
X117323512Y-77980357D01*
X117324945Y-77990223D01*
X117323000Y-78000000D01*
X117323000Y-79050000D01*
X117331646Y-79093467D01*
X117333355Y-79137756D01*
X117345861Y-79164933D01*
X117351697Y-79194272D01*
X117376320Y-79231123D01*
X117394848Y-79271385D01*
X117513205Y-79434526D01*
X117365276Y-79373100D01*
X117162452Y-79372923D01*
X114692941Y-78138168D01*
X114372072Y-77917571D01*
X114372125Y-77857015D01*
X114262439Y-77591554D01*
X114059514Y-77388275D01*
X113794245Y-77278125D01*
X113507015Y-77277875D01*
X113241554Y-77387561D01*
X113038275Y-77590486D01*
X112928125Y-77855755D01*
X112927875Y-78142985D01*
X113037561Y-78408446D01*
X113192882Y-78564038D01*
X110190512Y-78561418D01*
X106831067Y-79949512D01*
X104258545Y-82517548D01*
X102864590Y-85874565D01*
X102861418Y-89509488D01*
X104249512Y-92868933D01*
X106817548Y-95441455D01*
X110174565Y-96835410D01*
X113809488Y-96838582D01*
X117168933Y-95450488D01*
X119741455Y-92882452D01*
X121135410Y-89525435D01*
X121135917Y-88944347D01*
X121334724Y-89026900D01*
X121564269Y-89027100D01*
X121776417Y-88939442D01*
X121938871Y-88777271D01*
X122026900Y-88565276D01*
X122027100Y-88335731D01*
X121952380Y-88154895D01*
X128732412Y-88154895D01*
X128852454Y-88758387D01*
X129194305Y-89270002D01*
X129705920Y-89611853D01*
X130309412Y-89731895D01*
X130912904Y-89611853D01*
X131424519Y-89270002D01*
X131766370Y-88758387D01*
X131886412Y-88154895D01*
X131766370Y-87551403D01*
X131424519Y-87039788D01*
X130912904Y-86697937D01*
X130309412Y-86577895D01*
X129705920Y-86697937D01*
X129194305Y-87039788D01*
X128852454Y-87551403D01*
X128732412Y-88154895D01*
X121952380Y-88154895D01*
X121939442Y-88123583D01*
X121827000Y-88010945D01*
X121827000Y-85906362D01*
X122518938Y-87104834D01*
X122586990Y-87184074D01*
X122686667Y-87235388D01*
X122798455Y-87243879D01*
X122904739Y-87208209D01*
X124030573Y-86558209D01*
X124109813Y-86490157D01*
X124161127Y-86390480D01*
X124169618Y-86278692D01*
X124161991Y-86255965D01*
X147464587Y-86255965D01*
X147529969Y-86499976D01*
X147683753Y-86700392D01*
X147902527Y-86826701D01*
X148108590Y-86945672D01*
X148325447Y-86887565D01*
X148887572Y-85913936D01*
X148726544Y-85820966D01*
X149234542Y-85820966D01*
X150099918Y-86320591D01*
X150316775Y-86262484D01*
X150414181Y-86093773D01*
X150411418Y-89259488D01*
X151799512Y-92618933D01*
X154367548Y-95191455D01*
X157724565Y-96585410D01*
X161359488Y-96588582D01*
X164718933Y-95200488D01*
X167291455Y-92632452D01*
X168685410Y-89275435D01*
X168688582Y-85640512D01*
X167300488Y-82281067D01*
X164732452Y-79708545D01*
X161375435Y-78314590D01*
X157740512Y-78311418D01*
X154381067Y-79699512D01*
X153731581Y-80347865D01*
X154006025Y-79872516D01*
X153947918Y-79655659D01*
X153082542Y-79156034D01*
X152520417Y-80129663D01*
X152578524Y-80346520D01*
X152784587Y-80465490D01*
X153003361Y-80591800D01*
X153253818Y-80624773D01*
X153497829Y-80559390D01*
X153592317Y-80486887D01*
X151808545Y-82267548D01*
X150581917Y-85221597D01*
X150438361Y-85034510D01*
X150219587Y-84908201D01*
X150013524Y-84789230D01*
X149796667Y-84847337D01*
X149234542Y-85820966D01*
X148726544Y-85820966D01*
X148022196Y-85414311D01*
X147805339Y-85472418D01*
X147497560Y-86005507D01*
X147464587Y-86255965D01*
X124161991Y-86255965D01*
X124133948Y-86172408D01*
X123951088Y-85855685D01*
X124641414Y-85488154D01*
X124734724Y-85526900D01*
X124964269Y-85527100D01*
X125176417Y-85439442D01*
X125338871Y-85277271D01*
X125426900Y-85065276D01*
X125427100Y-84835731D01*
X125339442Y-84623583D01*
X125323306Y-84607418D01*
X125866089Y-84607418D01*
X126173869Y-85140507D01*
X126374285Y-85294292D01*
X126618296Y-85359675D01*
X126868753Y-85326702D01*
X127087527Y-85200392D01*
X127293590Y-85081422D01*
X127351697Y-84864565D01*
X126789572Y-83890936D01*
X125924196Y-84390561D01*
X125866089Y-84607418D01*
X125323306Y-84607418D01*
X125177271Y-84461129D01*
X124965276Y-84373100D01*
X124735731Y-84372900D01*
X124523583Y-84460558D01*
X124361129Y-84622729D01*
X124275596Y-84828712D01*
X123573865Y-85202315D01*
X123358948Y-84830068D01*
X123290896Y-84750828D01*
X123191219Y-84699514D01*
X123079431Y-84691023D01*
X122973147Y-84726693D01*
X122771642Y-84843032D01*
X121972309Y-83328937D01*
X125239587Y-83328937D01*
X125272560Y-83579395D01*
X125580339Y-84112484D01*
X125797196Y-84170591D01*
X126501543Y-83763936D01*
X127009542Y-83763936D01*
X127571667Y-84737565D01*
X127788524Y-84795672D01*
X127994587Y-84676701D01*
X128213361Y-84550392D01*
X128367145Y-84349976D01*
X128432527Y-84105965D01*
X128399554Y-83855507D01*
X128091775Y-83322418D01*
X127874918Y-83264311D01*
X127009542Y-83763936D01*
X126501543Y-83763936D01*
X126662572Y-83670966D01*
X126100447Y-82697337D01*
X125883590Y-82639230D01*
X125677527Y-82758201D01*
X125458753Y-82884510D01*
X125304969Y-83084926D01*
X125239587Y-83328937D01*
X121972309Y-83328937D01*
X121571823Y-82570337D01*
X126320417Y-82570337D01*
X126882542Y-83543966D01*
X127747918Y-83044341D01*
X127806025Y-82827484D01*
X127498245Y-82294395D01*
X127297829Y-82140610D01*
X127053818Y-82075227D01*
X126803361Y-82108200D01*
X126584587Y-82234510D01*
X126378524Y-82353480D01*
X126320417Y-82570337D01*
X121571823Y-82570337D01*
X121283392Y-82023993D01*
X121273592Y-82011925D01*
X121267957Y-81997436D01*
X119859447Y-79786541D01*
X120055573Y-79673307D01*
X120134813Y-79605255D01*
X120186127Y-79505578D01*
X120194618Y-79393790D01*
X120158948Y-79287506D01*
X119657110Y-78418296D01*
X119953865Y-77722516D01*
X121891089Y-77722516D01*
X122198869Y-78255605D01*
X122399285Y-78409390D01*
X122643296Y-78474773D01*
X122893753Y-78441800D01*
X123112527Y-78315490D01*
X123318590Y-78196520D01*
X123376697Y-77979663D01*
X122814572Y-77006034D01*
X121949196Y-77505659D01*
X121891089Y-77722516D01*
X119953865Y-77722516D01*
X120523097Y-76387883D01*
X120522900Y-76614269D01*
X120610558Y-76826417D01*
X120772729Y-76988871D01*
X120984724Y-77076900D01*
X121214269Y-77077100D01*
X121426417Y-76989442D01*
X121452700Y-76963204D01*
X121605339Y-77227582D01*
X121822196Y-77285689D01*
X122526543Y-76879034D01*
X123034542Y-76879034D01*
X123596667Y-77852663D01*
X123813524Y-77910770D01*
X124019587Y-77791799D01*
X124238361Y-77665490D01*
X124392145Y-77465074D01*
X124457527Y-77221063D01*
X124424554Y-76970605D01*
X124116775Y-76437516D01*
X123899918Y-76379409D01*
X123034542Y-76879034D01*
X122526543Y-76879034D01*
X122687572Y-76786064D01*
X122125447Y-75812435D01*
X121942536Y-75763424D01*
X121986037Y-75685435D01*
X122345417Y-75685435D01*
X122907542Y-76659064D01*
X123772918Y-76159439D01*
X123831025Y-75942582D01*
X123523245Y-75409493D01*
X123322829Y-75255708D01*
X123078818Y-75190325D01*
X122828361Y-75223298D01*
X122609587Y-75349608D01*
X122403524Y-75468578D01*
X122345417Y-75685435D01*
X121986037Y-75685435D01*
X126952935Y-66780817D01*
X127824780Y-65922810D01*
X125473743Y-69441388D01*
X124607720Y-73795177D01*
X125473743Y-78148966D01*
X127939966Y-81839931D01*
X131630931Y-84306154D01*
X135984720Y-85172177D01*
X136963507Y-84977484D01*
X148091089Y-84977484D01*
X148149196Y-85194341D01*
X149014572Y-85693966D01*
X149576697Y-84720337D01*
X149518590Y-84503480D01*
X149312527Y-84384510D01*
X149093753Y-84258200D01*
X148843296Y-84225227D01*
X148599285Y-84290610D01*
X148398869Y-84444395D01*
X148091089Y-84977484D01*
X136963507Y-84977484D01*
X140338509Y-84306154D01*
X144029474Y-81839931D01*
X146495697Y-78148966D01*
X147361720Y-73795177D01*
X146645745Y-70195728D01*
X147273101Y-71287793D01*
X147279380Y-71294984D01*
X147282876Y-71303866D01*
X149744532Y-75133109D01*
X149723100Y-75184724D01*
X149722961Y-75343880D01*
X149402905Y-75663937D01*
X149104739Y-75491791D01*
X149006184Y-75457193D01*
X148894204Y-75462593D01*
X148793148Y-75511133D01*
X148718938Y-75595166D01*
X147943938Y-76937506D01*
X147909340Y-77036061D01*
X147914740Y-77148041D01*
X147963280Y-77249097D01*
X148047313Y-77323307D01*
X148761943Y-77735898D01*
X148761943Y-79486293D01*
X145600024Y-82648212D01*
X145129739Y-82376693D01*
X145031184Y-82342095D01*
X144919204Y-82347495D01*
X144818148Y-82396035D01*
X144743938Y-82480068D01*
X143968938Y-83822408D01*
X143934340Y-83920963D01*
X143939740Y-84032943D01*
X143988280Y-84133999D01*
X144072313Y-84208209D01*
X145198147Y-84858209D01*
X145296702Y-84892807D01*
X145408682Y-84887407D01*
X145509738Y-84838867D01*
X145583948Y-84754834D01*
X146358948Y-83412494D01*
X146393546Y-83313939D01*
X146388146Y-83201959D01*
X146339606Y-83100903D01*
X146272718Y-83041834D01*
X149405522Y-79909030D01*
X149487246Y-79786723D01*
X149515943Y-79642451D01*
X149515943Y-79371063D01*
X151439587Y-79371063D01*
X151504969Y-79615074D01*
X151658753Y-79815490D01*
X151877527Y-79941799D01*
X152083590Y-80060770D01*
X152300447Y-80002663D01*
X152862572Y-79029034D01*
X152701544Y-78936064D01*
X153209542Y-78936064D01*
X154074918Y-79435689D01*
X154291775Y-79377582D01*
X154599554Y-78844493D01*
X154632527Y-78594035D01*
X154567145Y-78350024D01*
X154413361Y-78149608D01*
X154194587Y-78023299D01*
X153988524Y-77904328D01*
X153771667Y-77962435D01*
X153209542Y-78936064D01*
X152701544Y-78936064D01*
X151997196Y-78529409D01*
X151780339Y-78587516D01*
X151472560Y-79120605D01*
X151439587Y-79371063D01*
X149515943Y-79371063D01*
X149515943Y-77918629D01*
X149558948Y-77869932D01*
X150333948Y-76527592D01*
X150368546Y-76429037D01*
X150363146Y-76317057D01*
X150314606Y-76216001D01*
X150230573Y-76141791D01*
X150078923Y-76054236D01*
X150256196Y-75876962D01*
X150414269Y-75877100D01*
X150626417Y-75789442D01*
X150788871Y-75627271D01*
X150876900Y-75415276D01*
X150877100Y-75185731D01*
X150789442Y-74973583D01*
X150627271Y-74811129D01*
X150415276Y-74723100D01*
X150377295Y-74723067D01*
X147922215Y-70904053D01*
X147402884Y-70000032D01*
X152680996Y-77115709D01*
X152673100Y-77134724D01*
X152672900Y-77364269D01*
X152678486Y-77377787D01*
X152574285Y-77405708D01*
X152373869Y-77559493D01*
X152066089Y-78092582D01*
X152124196Y-78309439D01*
X152989572Y-78809064D01*
X153551697Y-77835435D01*
X153531004Y-77758206D01*
X153576417Y-77739442D01*
X153738871Y-77577271D01*
X153826900Y-77365276D01*
X153827100Y-77135731D01*
X153739442Y-76923583D01*
X153577271Y-76761129D01*
X153365276Y-76673100D01*
X153291425Y-76673036D01*
X151578879Y-74364269D01*
X152472900Y-74364269D01*
X152560558Y-74576417D01*
X152722729Y-74738871D01*
X152934724Y-74826900D01*
X153164269Y-74827100D01*
X153376417Y-74739442D01*
X153487892Y-74628161D01*
X154849023Y-74664949D01*
X154972729Y-74788871D01*
X155184724Y-74876900D01*
X155414269Y-74877100D01*
X155626417Y-74789442D01*
X155788871Y-74627271D01*
X155876900Y-74415276D01*
X155877100Y-74185731D01*
X155789442Y-73973583D01*
X155627271Y-73811129D01*
X155415276Y-73723100D01*
X155185731Y-73722900D01*
X154973583Y-73810558D01*
X154872652Y-73911313D01*
X153489886Y-73873941D01*
X153377271Y-73761129D01*
X153165276Y-73673100D01*
X152935731Y-73672900D01*
X152723583Y-73760558D01*
X152561129Y-73922729D01*
X152473100Y-74134724D01*
X152472900Y-74364269D01*
X151578879Y-74364269D01*
X150461832Y-72858325D01*
X150654757Y-72987234D01*
X151258249Y-73107276D01*
X151861741Y-72987234D01*
X152373356Y-72645383D01*
X152715207Y-72133768D01*
X152835249Y-71530276D01*
X152715207Y-70926784D01*
X152373356Y-70415169D01*
X151861741Y-70073318D01*
X151258249Y-69953276D01*
X150654757Y-70073318D01*
X150143142Y-70415169D01*
X149801291Y-70926784D01*
X149681249Y-71530276D01*
X149756186Y-71907010D01*
X147380662Y-68704451D01*
X147434724Y-68726900D01*
X147664269Y-68727100D01*
X147876417Y-68639442D01*
X148038871Y-68477271D01*
X148126900Y-68265276D01*
X148127100Y-68035731D01*
X148039442Y-67823583D01*
X147877271Y-67661129D01*
X147825475Y-67639621D01*
X147721454Y-66970914D01*
X162447595Y-76786365D01*
X162148207Y-77304921D01*
X162113609Y-77403476D01*
X162119009Y-77515456D01*
X162167549Y-77616512D01*
X162251582Y-77690722D01*
X166650992Y-80230722D01*
X166749547Y-80265320D01*
X166861527Y-80259920D01*
X166962583Y-80211380D01*
X167036793Y-80127347D01*
X167892428Y-78645343D01*
X169068411Y-79676652D01*
X171206858Y-84012993D01*
X171523080Y-88837604D01*
X169968933Y-93415972D01*
X166781021Y-97051090D01*
X162444680Y-99189537D01*
X157620069Y-99505759D01*
X156138939Y-99002983D01*
X156951793Y-97595079D01*
X156986391Y-97496524D01*
X156980991Y-97384544D01*
X156932451Y-97283488D01*
X156848418Y-97209278D01*
X152449008Y-94669278D01*
X152350453Y-94634680D01*
X152238473Y-94640080D01*
X152137417Y-94688620D01*
X152063207Y-94772653D01*
X151776355Y-95269495D01*
X137708664Y-88154895D01*
X140083028Y-88154895D01*
X140203070Y-88758387D01*
X140544921Y-89270002D01*
X141056536Y-89611853D01*
X141660028Y-89731895D01*
X142263520Y-89611853D01*
X142775135Y-89270002D01*
X143116986Y-88758387D01*
X143237028Y-88154895D01*
X143116986Y-87551403D01*
X142775135Y-87039788D01*
X142737387Y-87014565D01*
X148545417Y-87014565D01*
X148603524Y-87231422D01*
X148809587Y-87350392D01*
X149028361Y-87476702D01*
X149278818Y-87509675D01*
X149522829Y-87444292D01*
X149723245Y-87290507D01*
X150031025Y-86757418D01*
X149972918Y-86540561D01*
X149107542Y-86040936D01*
X148545417Y-87014565D01*
X142737387Y-87014565D01*
X142263520Y-86697937D01*
X141660028Y-86577895D01*
X141056536Y-86697937D01*
X140544921Y-87039788D01*
X140203070Y-87551403D01*
X140083028Y-88154895D01*
X137708664Y-88154895D01*
X136165273Y-87374340D01*
X136129632Y-87364404D01*
X136097341Y-87346326D01*
X136040816Y-87339644D01*
X135985994Y-87324360D01*
X135949262Y-87328820D01*
X135912511Y-87324475D01*
X135857732Y-87339933D01*
X135801234Y-87346792D01*
X135769003Y-87364970D01*
X135733390Y-87375019D01*
X119769236Y-95511859D01*
X119486793Y-95022653D01*
X119418741Y-94943413D01*
X119319064Y-94892099D01*
X119207276Y-94883608D01*
X119100992Y-94919278D01*
X114701582Y-97459278D01*
X114622342Y-97527330D01*
X114571028Y-97627007D01*
X114562537Y-97738795D01*
X114598207Y-97845079D01*
X114749284Y-98106752D01*
X113416751Y-98805094D01*
X109012434Y-98142078D01*
X105548638Y-96101760D01*
X103426965Y-92490402D01*
X103427100Y-92335731D01*
X103339442Y-92123583D01*
X103177271Y-91961129D01*
X103160080Y-91953991D01*
X102088014Y-89381031D01*
X102806832Y-83103348D01*
X105357644Y-80215929D01*
X109298418Y-77940722D01*
X109377658Y-77872670D01*
X109428972Y-77772993D01*
X109437463Y-77661205D01*
X109401793Y-77554921D01*
X109140078Y-77101618D01*
X119462803Y-70614626D01*
X119254225Y-70926784D01*
X119134183Y-71530276D01*
X119254225Y-72133768D01*
X119596076Y-72645383D01*
X120107691Y-72987234D01*
X120711183Y-73107276D01*
X121314675Y-72987234D01*
X121826290Y-72645383D01*
X122168141Y-72133768D01*
X122288183Y-71530276D01*
X122168141Y-70926784D01*
X121826290Y-70415169D01*
X121314675Y-70073318D01*
X120711183Y-69953276D01*
X120424446Y-70010312D01*
X124253802Y-67603873D01*
X124284487Y-67574859D01*
X124320691Y-67553110D01*
X124351458Y-67511537D01*
X124389038Y-67476005D01*
X124406286Y-67437455D01*
X124431409Y-67403508D01*
X124443924Y-67353328D01*
X124465047Y-67306117D01*
X124466229Y-67263898D01*
X124476449Y-67222923D01*
X124742157Y-61700358D01*
X124809492Y-61700358D01*
X124929534Y-62303850D01*
X125271385Y-62815465D01*
X125783000Y-63157316D01*
X126386492Y-63277358D01*
X126989984Y-63157316D01*
X127501599Y-62815465D01*
X127843450Y-62303850D01*
X127963492Y-61700358D01*
X127843450Y-61096866D01*
X127501599Y-60585251D01*
X126989984Y-60243400D01*
X126386492Y-60123358D01*
X125783000Y-60243400D01*
X125271385Y-60585251D01*
X124929534Y-61096866D01*
X124809492Y-61700358D01*
X124742157Y-61700358D01*
X124915381Y-58100000D01*
X132331308Y-58100000D01*
X132382842Y-58359077D01*
X132529597Y-58578711D01*
X132749231Y-58725466D01*
X133008308Y-58777000D01*
X133391692Y-58777000D01*
X133650769Y-58725466D01*
X133870403Y-58578711D01*
X134017158Y-58359077D01*
X134068692Y-58100000D01*
X134017158Y-57840923D01*
X133870403Y-57621289D01*
X133650769Y-57474534D01*
X133391692Y-57423000D01*
X133008308Y-57423000D01*
X132749231Y-57474534D01*
X132529597Y-57621289D01*
X132382842Y-57840923D01*
X132331308Y-58100000D01*
X124915381Y-58100000D01*
X125164277Y-52926886D01*
X125284724Y-52976900D01*
X125514269Y-52977100D01*
X125726417Y-52889442D01*
X125888871Y-52727271D01*
X125976900Y-52515276D01*
X125977091Y-52296384D01*
X126409903Y-51777009D01*
X126514269Y-51777100D01*
X126726417Y-51689442D01*
X126888871Y-51527271D01*
X126976900Y-51315276D01*
X126977100Y-51085731D01*
X126889442Y-50873583D01*
X126727271Y-50711129D01*
X126515276Y-50623100D01*
X126285731Y-50622900D01*
X126073583Y-50710558D01*
X125911129Y-50872729D01*
X125823100Y-51084724D01*
X125822909Y-51303616D01*
X125390097Y-51822991D01*
X125285731Y-51822900D01*
X125216007Y-51851709D01*
X125361756Y-48822426D01*
X125915000Y-48822426D01*
X126017650Y-48803111D01*
X126111927Y-48742445D01*
X126175175Y-48649880D01*
X126197426Y-48540000D01*
X126197426Y-43460000D01*
X126178111Y-43357350D01*
X126117445Y-43263073D01*
X126024880Y-43199825D01*
X125915000Y-43177574D01*
X124342550Y-43177574D01*
X124536381Y-42203121D01*
X127222539Y-38183000D01*
X131242661Y-35496839D01*
X135984719Y-34553585D01*
X140726777Y-35496839D01*
G36*
X144460558Y-49476417D02*
X144622729Y-49638871D01*
X144834724Y-49726900D01*
X144993881Y-49727039D01*
X145143746Y-49876904D01*
X144779081Y-51882560D01*
X144779441Y-51904381D01*
X144773799Y-51925465D01*
X144625303Y-54202410D01*
X144026909Y-57355486D01*
X144027100Y-57135731D01*
X143939442Y-56923583D01*
X143777271Y-56761129D01*
X143565276Y-56673100D01*
X143335731Y-56672900D01*
X143123583Y-56760558D01*
X142961129Y-56922729D01*
X142873100Y-57134724D01*
X142872968Y-57286617D01*
X142777061Y-57380293D01*
X142777100Y-57335731D01*
X142689442Y-57123583D01*
X142527271Y-56961129D01*
X142315276Y-56873100D01*
X142085731Y-56872900D01*
X141873583Y-56960558D01*
X141711129Y-57122729D01*
X141623100Y-57334724D01*
X141622925Y-57535840D01*
X140451107Y-58870411D01*
X140455657Y-58852036D01*
X140474303Y-58795015D01*
X140473232Y-58781069D01*
X140476594Y-58767492D01*
X140467632Y-58708169D01*
X140463037Y-58648349D01*
X139534388Y-55331746D01*
X139538871Y-55327271D01*
X139626900Y-55115276D01*
X139627100Y-54885731D01*
X139539442Y-54673583D01*
X139377271Y-54511129D01*
X139352717Y-54500933D01*
X141168933Y-53750488D01*
X143741455Y-51182452D01*
X144455223Y-49463506D01*
X144460558Y-49476417D01*
X144460558Y-49476417D01*
G37*
X144460558Y-49476417D02*
X144622729Y-49638871D01*
X144834724Y-49726900D01*
X144993881Y-49727039D01*
X145143746Y-49876904D01*
X144779081Y-51882560D01*
X144779441Y-51904381D01*
X144773799Y-51925465D01*
X144625303Y-54202410D01*
X144026909Y-57355486D01*
X144027100Y-57135731D01*
X143939442Y-56923583D01*
X143777271Y-56761129D01*
X143565276Y-56673100D01*
X143335731Y-56672900D01*
X143123583Y-56760558D01*
X142961129Y-56922729D01*
X142873100Y-57134724D01*
X142872968Y-57286617D01*
X142777061Y-57380293D01*
X142777100Y-57335731D01*
X142689442Y-57123583D01*
X142527271Y-56961129D01*
X142315276Y-56873100D01*
X142085731Y-56872900D01*
X141873583Y-56960558D01*
X141711129Y-57122729D01*
X141623100Y-57334724D01*
X141622925Y-57535840D01*
X140451107Y-58870411D01*
X140455657Y-58852036D01*
X140474303Y-58795015D01*
X140473232Y-58781069D01*
X140476594Y-58767492D01*
X140467632Y-58708169D01*
X140463037Y-58648349D01*
X139534388Y-55331746D01*
X139538871Y-55327271D01*
X139626900Y-55115276D01*
X139627100Y-54885731D01*
X139539442Y-54673583D01*
X139377271Y-54511129D01*
X139352717Y-54500933D01*
X141168933Y-53750488D01*
X143741455Y-51182452D01*
X144455223Y-49463506D01*
X144460558Y-49476417D01*
M02*
